  0
SECTION
  2
HEADER
  9
$ACADVER
  1
AC1014
  9
$HANDSEED
  5
FFFF
  9
$MEASUREMENT
 70
     1
  0
ENDSEC
  0
SECTION
  2
TABLES
  0
TABLE
  2
VPORT
  5
8
330
0
100
AcDbSymbolTable
 70
     4
  0
VPORT
  5
2E
330
8
100
AcDbSymbolTableRecord
100
AcDbViewportTableRecord
  2
*ACTIVE
 70
     0
 10
0.0
 20
0.0
 11
1.0
 21
1.0
 12
210.0
 22
148.5
 13
0.0
 23
0.0
 14
10.0
 24
10.0
 15
10.0
 25
10.0
 16
0.0
 26
0.0
 36
1.0
 17
0.0
 27
0.0
 37
0.0
 40
341.0
 41
1.24
 42
50.0
 43
0.0
 44
0.0
 50
0.0
 51
0.0
 71
     0
 72
   100
 73
     1
 74
     3
 75
     0
 76
     0
 77
     0
 78
     0
  0
ENDTAB
  0
TABLE
  2
LTYPE
  5
5
330
0
100
AcDbSymbolTable
 70
     1
  0
LTYPE
  5
14
330
5
100
AcDbSymbolTableRecord
100
AcDbLinetypeTableRecord
  2
BYBLOCK
 70
     0
  3

 72
    65
 73
     0
 40
0.0
  0
LTYPE
  5
15
330
5
100
AcDbSymbolTableRecord
100
AcDbLinetypeTableRecord
  2
BYLAYER
 70
     0
  3

 72
    65
 73
     0
 40
0.0
  0
LTYPE
  5
16
330
5
100
AcDbSymbolTableRecord
100
AcDbLinetypeTableRecord
  2
CONTINUOUS
 70
     0
  3
Solid line
 72
    65
 73
     0
 40
0.0
  0
ENDTAB
  0
TABLE
  2
LAYER
  5
2
100
AcDbSymbolTable
 70
2
  0
LAYER
  5
50
100
AcDbSymbolTableRecord
100
AcDbLayerTableRecord
  2
0
 70
0
  6
CONTINUOUS
  0
LAYER
  5
51
100
AcDbSymbolTableRecord
100
AcDbLayerTableRecord
  2
Layer_1
 70
0
  6
CONTINUOUS
  0
ENDTAB
  0
TABLE
  2
STYLE
  5
3
330
0
100
AcDbSymbolTable
 70
     1
  0
STYLE
  5
11
330
3
100
AcDbSymbolTableRecord
100
AcDbTextStyleTableRecord
  2
STANDARD
 70
     0
 40
0.0
 41
1.0
 50
0.0
 71
     0
 42
2.5
  3
txt
  4

  0
ENDTAB
  0
TABLE
  2
VIEW
  5
6
330
0
100
AcDbSymbolTable
 70
     0
  0
ENDTAB
  0
TABLE
  2
UCS
  5
7
330
0
100
AcDbSymbolTable
 70
     0
  0
ENDTAB
  0
TABLE
  2
APPID
  5
9
330
0
100
AcDbSymbolTable
 70
     2
  0
APPID
  5
12
330
9
100
AcDbSymbolTableRecord
100
AcDbRegAppTableRecord
  2
ACAD
 70
     0
  0
ENDTAB
  0
TABLE
  2
DIMSTYLE
  5
A
330
0
100
AcDbSymbolTable
 70
     1
  0
DIMSTYLE
105
27
330
A
100
AcDbSymbolTableRecord
100
AcDbDimStyleTableRecord
  2
ISO-25
 70
     0
  3

  4

  5

  6

  7

 40
1.0
 41
2.5
 42
0.625
 43
3.75
 44
1.25
 45
0.0
 46
0.0
 47
0.0
 48
0.0
140
2.5
141
2.5
142
0.0
143
0.03937007874016
144
1.0
145
0.0
146
1.0
147
0.625
 71
     0
 72
     0
 73
     0
 74
     0
 75
     0
 76
     0
 77
     1
 78
     8
170
     0
171
     3
172
     1
173
     0
174
     0
175
     0
176
     0
177
     0
178
     0
270
     2
271
     2
272
     2
273
     2
274
     3
340
11
275
     0
280
     0
281
     0
282
     0
283
     0
284
     8
285
     0
286
     0
287
     3
288
     0
  0
ENDTAB
  0
TABLE
  2
BLOCK_RECORD
  5
1
330
0
100
AcDbSymbolTable
 70
     1
  0
BLOCK_RECORD
  5
1F
330
1
100
AcDbSymbolTableRecord
100
AcDbBlockTableRecord
  2
*MODEL_SPACE
  0
BLOCK_RECORD
  5
1B
330
1
100
AcDbSymbolTableRecord
100
AcDbBlockTableRecord
  2
*PAPER_SPACE
  0
ENDTAB
  0
ENDSEC
  0
SECTION
  2
BLOCKS
  0
BLOCK
  5
20
330
1F
100
AcDbEntity
  8
0
100
AcDbBlockBegin
  2
*MODEL_SPACE
 70
     0
 10
0.0
 20
0.0
 30
0.0
  3
*MODEL_SPACE
  1

  0
ENDBLK
  5
21
330
1F
100
AcDbEntity
  8
0
100
AcDbBlockEnd
  0
BLOCK
  5
1C
330
1B
100
AcDbEntity
 67
     1
  8
0
100
AcDbBlockBegin
  2
*PAPER_SPACE
  1

  0
ENDBLK
  5
1D
330
1B
100
AcDbEntity
 67
     1
  8
0
100
AcDbBlockEnd
  0
ENDSEC
  0
SECTION
  2
ENTITIES
  0
LWPOLYLINE
  5
100
100
AcDbEntity
  8
Layer_1
 62
7
100
AcDbPolyline
 90
5
 70
1
 10
-1.510582
 20
1.052910
 30
0.0
 10
0.119048
 20
1.052910
 30
0.0
 10
0.119048
 20
0.185185
 30
0.0
 10
-1.510582
 20
0.185185
 30
0.0
 10
-1.510582
 20
1.052910
 30
0.0
  0
LWPOLYLINE
  5
101
100
AcDbEntity
  8
Layer_1
 62
7
100
AcDbPolyline
 90
5
 70
1
 10
-1.296296
 20
1.449735
 30
0.0
 10
0.394180
 20
1.449735
 30
0.0
 10
0.394180
 20
1.055556
 30
0.0
 10
-1.296296
 20
1.055556
 30
0.0
 10
-1.296296
 20
1.449735
 30
0.0
  0
LWPOLYLINE
  5
102
100
AcDbEntity
  8
Layer_1
 62
7
100
AcDbPolyline
 90
5
 70
1
 10
0.119048
 20
1.060847
 30
0.0
 10
1.076720
 20
1.060847
 30
0.0
 10
1.076720
 20
0.187831
 30
0.0
 10
0.119048
 20
0.187831
 30
0.0
 10
0.119048
 20
1.060847
 30
0.0
  0
LWPOLYLINE
  5
103
100
AcDbEntity
  8
Layer_1
 62
7
100
AcDbPolyline
 90
5
 70
1
 10
0.391534
 20
1.608466
 30
0.0
 10
1.280423
 20
1.608466
 30
0.0
 10
1.280423
 20
1.066138
 30
0.0
 10
0.391534
 20
1.066138
 30
0.0
 10
0.391534
 20
1.608466
 30
0.0
  0
SPLINE
  5
104
100
AcDbEntity
  8
Layer_1
 62
7
100
AcDbSpline
 70
8
 71
3
 72
8
 73
4
 74
0
 40
0
 40
0
 40
0
 40
0
 40
1
 40
1
 40
1
 40
1
 10
-0.910053
 20
-0.203704
 30
0.0
 10
-0.938349
 20
-0.195619
 30
0.0
 10
-0.924459
 20
-0.198251
 30
0.0
 10
-0.962963
 20
-0.195767
 30
0.0
  0
SPLINE
  5
105
100
AcDbEntity
  8
Layer_1
 62
7
100
AcDbSpline
 70
8
 71
3
 72
8
 73
4
 74
0
 40
0
 40
0
 40
0
 40
0
 40
1
 40
1
 40
1
 40
1
 10
-0.962963
 20
-0.195767
 30
0.0
 10
-0.978828
 20
-0.194744
 30
0.0
 10
-0.994689
 20
-0.193509
 30
0.0
 10
-1.010582
 20
-0.193122
 30
0.0
  0
SPLINE
  5
106
100
AcDbEntity
  8
Layer_1
 62
7
100
AcDbSpline
 70
8
 71
3
 72
8
 73
4
 74
0
 40
0
 40
0
 40
0
 40
0
 40
1
 40
1
 40
1
 40
1
 10
-1.010582
 20
-0.193122
 30
0.0
 10
-1.030858
 20
-0.192627
 30
0.0
 10
-1.051146
 20
-0.193122
 30
0.0
 10
-1.071429
 20
-0.193122
 30
0.0
  0
SPLINE
  5
107
100
AcDbEntity
  8
Layer_1
 62
7
100
AcDbSpline
 70
8
 71
3
 72
8
 73
4
 74
0
 40
0
 40
0
 40
0
 40
0
 40
1
 40
1
 40
1
 40
1
 10
-1.071429
 20
-0.193122
 30
0.0
 10
-1.081129
 20
-0.193122
 30
0.0
 10
-1.090829
 20
-0.193122
 30
0.0
 10
-1.100529
 20
-0.193122
 30
0.0
  0
SPLINE
  5
108
100
AcDbEntity
  8
Layer_1
 62
7
100
AcDbSpline
 70
8
 71
3
 72
8
 73
4
 74
0
 40
0
 40
0
 40
0
 40
0
 40
1
 40
1
 40
1
 40
1
 10
-1.100529
 20
-0.193122
 30
0.0
 10
-1.107584
 20
-0.193122
 30
0.0
 10
-1.114700
 20
-0.192189
 30
0.0
 10
-1.121693
 20
-0.193122
 30
0.0
  0
SPLINE
  5
109
100
AcDbEntity
  8
Layer_1
 62
7
100
AcDbSpline
 70
8
 71
3
 72
8
 73
4
 74
0
 40
0
 40
0
 40
0
 40
0
 40
1
 40
1
 40
1
 40
1
 10
-1.121693
 20
-0.193122
 30
0.0
 10
-1.136846
 20
-0.195142
 30
0.0
 10
-1.182141
 20
-0.215475
 30
0.0
 10
-1.185185
 20
-0.216931
 30
0.0
  0
SPLINE
  5
10a
100
AcDbEntity
  8
Layer_1
 62
7
100
AcDbSpline
 70
8
 71
3
 72
8
 73
4
 74
0
 40
0
 40
0
 40
0
 40
0
 40
1
 40
1
 40
1
 40
1
 10
-1.185185
 20
-0.216931
 30
0.0
 10
-1.198696
 20
-0.223393
 30
0.0
 10
-1.217215
 20
-0.241278
 30
0.0
 10
-1.224868
 20
-0.251323
 30
0.0
  0
SPLINE
  5
10b
100
AcDbEntity
  8
Layer_1
 62
7
100
AcDbSpline
 70
8
 71
3
 72
8
 73
4
 74
0
 40
0
 40
0
 40
0
 40
0
 40
1
 40
1
 40
1
 40
1
 10
-1.224868
 20
-0.251323
 30
0.0
 10
-1.232292
 20
-0.261067
 30
0.0
 10
-1.237380
 20
-0.272391
 30
0.0
 10
-1.243386
 20
-0.283069
 30
0.0
  0
SPLINE
  5
10c
100
AcDbEntity
  8
Layer_1
 62
7
100
AcDbSpline
 70
8
 71
3
 72
8
 73
4
 74
0
 40
0
 40
0
 40
0
 40
0
 40
1
 40
1
 40
1
 40
1
 10
-1.243386
 20
-0.283069
 30
0.0
 10
-1.259950
 20
-0.312515
 30
0.0
 10
-1.264279
 20
-0.345066
 30
0.0
 10
-1.261905
 20
-0.378307
 30
0.0
  0
SPLINE
  5
10d
100
AcDbEntity
  8
Layer_1
 62
7
100
AcDbSpline
 70
8
 71
3
 72
8
 73
4
 74
0
 40
0
 40
0
 40
0
 40
0
 40
1
 40
1
 40
1
 40
1
 10
-1.261905
 20
-0.378307
 30
0.0
 10
-1.261706
 20
-0.381088
 30
0.0
 10
-1.259936
 20
-0.383538
 30
0.0
 10
-1.259259
 20
-0.386243
 30
0.0
  0
SPLINE
  5
10e
100
AcDbEntity
  8
Layer_1
 62
7
100
AcDbSpline
 70
8
 71
3
 72
8
 73
4
 74
0
 40
0
 40
0
 40
0
 40
0
 40
1
 40
1
 40
1
 40
1
 10
-1.259259
 20
-0.386243
 30
0.0
 10
-1.258169
 20
-0.390606
 30
0.0
 10
-1.257849
 20
-0.395147
 30
0.0
 10
-1.256614
 20
-0.399471
 30
0.0
  0
SPLINE
  5
10f
100
AcDbEntity
  8
Layer_1
 62
7
100
AcDbSpline
 70
8
 71
3
 72
8
 73
4
 74
0
 40
0
 40
0
 40
0
 40
0
 40
1
 40
1
 40
1
 40
1
 10
-1.256614
 20
-0.399471
 30
0.0
 10
-1.253368
 20
-0.410831
 30
0.0
 10
-1.249099
 20
-0.426757
 30
0.0
 10
-1.240741
 20
-0.436508
 30
0.0
  0
SPLINE
  5
110
100
AcDbEntity
  8
Layer_1
 62
7
100
AcDbSpline
 70
8
 71
3
 72
8
 73
4
 74
0
 40
0
 40
0
 40
0
 40
0
 40
1
 40
1
 40
1
 40
1
 10
-1.240741
 20
-0.436508
 30
0.0
 10
-1.238672
 20
-0.438922
 30
0.0
 10
-1.235053
 20
-0.439551
 30
0.0
 10
-1.232804
 20
-0.441799
 30
0.0
  0
SPLINE
  5
111
100
AcDbEntity
  8
Layer_1
 62
7
100
AcDbSpline
 70
8
 71
3
 72
8
 73
4
 74
0
 40
0
 40
0
 40
0
 40
0
 40
1
 40
1
 40
1
 40
1
 10
-1.232804
 20
-0.441799
 30
0.0
 10
-1.214472
 20
-0.460131
 30
0.0
 10
-1.228690
 20
-0.451204
 30
0.0
 10
-1.214286
 20
-0.465608
 30
0.0
  0
SPLINE
  5
112
100
AcDbEntity
  8
Layer_1
 62
7
100
AcDbSpline
 70
8
 71
3
 72
8
 73
4
 74
0
 40
0
 40
0
 40
0
 40
0
 40
1
 40
1
 40
1
 40
1
 10
-1.214286
 20
-0.465608
 30
0.0
 10
-1.213662
 20
-0.466232
 30
0.0
 10
-1.212477
 20
-0.465330
 30
0.0
 10
-1.211640
 20
-0.465608
 30
0.0
  0
SPLINE
  5
113
100
AcDbEntity
  8
Layer_1
 62
7
100
AcDbSpline
 70
8
 71
3
 72
8
 73
4
 74
0
 40
0
 40
0
 40
0
 40
0
 40
1
 40
1
 40
1
 40
1
 10
-1.211640
 20
-0.465608
 30
0.0
 10
-1.209770
 20
-0.466232
 30
0.0
 10
-1.207990
 20
-0.467160
 30
0.0
 10
-1.206349
 20
-0.468254
 30
0.0
  0
SPLINE
  5
114
100
AcDbEntity
  8
Layer_1
 62
7
100
AcDbSpline
 70
8
 71
3
 72
8
 73
4
 74
0
 40
0
 40
0
 40
0
 40
0
 40
1
 40
1
 40
1
 40
1
 10
-1.206349
 20
-0.468254
 30
0.0
 10
-1.204274
 20
-0.469637
 30
0.0
 10
-1.203289
 20
-0.472430
 30
0.0
 10
-1.201058
 20
-0.473545
 30
0.0
  0
SPLINE
  5
115
100
AcDbEntity
  8
Layer_1
 62
7
100
AcDbSpline
 70
8
 71
3
 72
8
 73
4
 74
0
 40
0
 40
0
 40
0
 40
0
 40
1
 40
1
 40
1
 40
1
 10
-1.201058
 20
-0.473545
 30
0.0
 10
-1.200269
 20
-0.473939
 30
0.0
 10
-1.199036
 20
-0.472921
 30
0.0
 10
-1.198413
 20
-0.473545
 30
0.0
  0
SPLINE
  5
116
100
AcDbEntity
  8
Layer_1
 62
7
100
AcDbSpline
 70
8
 71
3
 72
8
 73
4
 74
0
 40
0
 40
0
 40
0
 40
0
 40
1
 40
1
 40
1
 40
1
 10
-1.198413
 20
-0.473545
 30
0.0
 10
-1.192939
 20
-0.479019
 30
0.0
 10
-1.206777
 20
-0.473331
 30
0.0
 10
-1.195767
 20
-0.478836
 30
0.0
  0
SPLINE
  5
117
100
AcDbEntity
  8
Layer_1
 62
7
100
AcDbSpline
 70
8
 71
3
 72
8
 73
4
 74
0
 40
0
 40
0
 40
0
 40
0
 40
1
 40
1
 40
1
 40
1
 10
-1.195767
 20
-0.478836
 30
0.0
 10
-1.194978
 20
-0.479230
 30
0.0
 10
-1.193910
 20
-0.478442
 30
0.0
 10
-1.193122
 20
-0.478836
 30
0.0
  0
SPLINE
  5
118
100
AcDbEntity
  8
Layer_1
 62
7
100
AcDbSpline
 70
8
 71
3
 72
8
 73
4
 74
0
 40
0
 40
0
 40
0
 40
0
 40
1
 40
1
 40
1
 40
1
 10
-1.193122
 20
-0.478836
 30
0.0
 10
-1.192006
 20
-0.479394
 30
0.0
 10
-1.191514
 20
-0.480790
 30
0.0
 10
-1.190476
 20
-0.481481
 30
0.0
  0
SPLINE
  5
119
100
AcDbEntity
  8
Layer_1
 62
7
100
AcDbSpline
 70
8
 71
3
 72
8
 73
4
 74
0
 40
0
 40
0
 40
0
 40
0
 40
1
 40
1
 40
1
 40
1
 10
-1.190476
 20
-0.481481
 30
0.0
 10
-1.185604
 20
-0.484730
 30
0.0
 10
-1.179627
 20
-0.486404
 30
0.0
 10
-1.174603
 20
-0.489418
 30
0.0
  0
SPLINE
  5
11a
100
AcDbEntity
  8
Layer_1
 62
7
100
AcDbSpline
 70
8
 71
3
 72
8
 73
4
 74
0
 40
0
 40
0
 40
0
 40
0
 40
1
 40
1
 40
1
 40
1
 10
-1.174603
 20
-0.489418
 30
0.0
 10
-1.169150
 20
-0.492690
 30
0.0
 10
-1.164418
 20
-0.497156
 30
0.0
 10
-1.158730
 20
-0.500000
 30
0.0
  0
SPLINE
  5
11b
100
AcDbEntity
  8
Layer_1
 62
7
100
AcDbSpline
 70
8
 71
3
 72
8
 73
4
 74
0
 40
0
 40
0
 40
0
 40
0
 40
1
 40
1
 40
1
 40
1
 10
-1.158730
 20
-0.500000
 30
0.0
 10
-1.156236
 20
-0.501247
 30
0.0
 10
-1.153185
 20
-0.501211
 30
0.0
 10
-1.150794
 20
-0.502645
 30
0.0
  0
SPLINE
  5
11c
100
AcDbEntity
  8
Layer_1
 62
7
100
AcDbSpline
 70
8
 71
3
 72
8
 73
4
 74
0
 40
0
 40
0
 40
0
 40
0
 40
1
 40
1
 40
1
 40
1
 10
-1.150794
 20
-0.502645
 30
0.0
 10
-1.148655
 20
-0.503929
 30
0.0
 10
-1.147734
 20
-0.506821
 30
0.0
 10
-1.145503
 20
-0.507936
 30
0.0
  0
SPLINE
  5
11d
100
AcDbEntity
  8
Layer_1
 62
7
100
AcDbSpline
 70
8
 71
3
 72
8
 73
4
 74
0
 40
0
 40
0
 40
0
 40
0
 40
1
 40
1
 40
1
 40
1
 10
-1.145503
 20
-0.507936
 30
0.0
 10
-1.143925
 20
-0.508725
 30
0.0
 10
-1.141885
 20
-0.507379
 30
0.0
 10
-1.140212
 20
-0.507936
 30
0.0
  0
SPLINE
  5
11e
100
AcDbEntity
  8
Layer_1
 62
7
100
AcDbSpline
 70
8
 71
3
 72
8
 73
4
 74
0
 40
0
 40
0
 40
0
 40
0
 40
1
 40
1
 40
1
 40
1
 10
-1.140212
 20
-0.507936
 30
0.0
 10
-1.139029
 20
-0.508331
 30
0.0
 10
-1.138448
 20
-0.509700
 30
0.0
 10
-1.137566
 20
-0.510582
 30
0.0
  0
SPLINE
  5
11f
100
AcDbEntity
  8
Layer_1
 62
7
100
AcDbSpline
 70
8
 71
3
 72
8
 73
4
 74
0
 40
0
 40
0
 40
0
 40
0
 40
1
 40
1
 40
1
 40
1
 10
-1.137566
 20
-0.510582
 30
0.0
 10
-1.135803
 20
-0.511464
 30
0.0
 10
-1.134146
 20
-0.512604
 30
0.0
 10
-1.132275
 20
-0.513227
 30
0.0
  0
SPLINE
  5
120
100
AcDbEntity
  8
Layer_1
 62
7
100
AcDbSpline
 70
8
 71
3
 72
8
 73
4
 74
0
 40
0
 40
0
 40
0
 40
0
 40
1
 40
1
 40
1
 40
1
 10
-1.132275
 20
-0.513227
 30
0.0
 10
-1.130602
 20
-0.513785
 30
0.0
 10
-1.128748
 20
-0.513227
 30
0.0
 10
-1.126984
 20
-0.513227
 30
0.0
  0
SPLINE
  5
121
100
AcDbEntity
  8
Layer_1
 62
7
100
AcDbSpline
 70
8
 71
3
 72
8
 73
4
 74
0
 40
0
 40
0
 40
0
 40
0
 40
1
 40
1
 40
1
 40
1
 10
-1.126984
 20
-0.513227
 30
0.0
 10
-1.124339
 20
-0.513227
 30
0.0
 10
-1.121614
 20
-0.513869
 30
0.0
 10
-1.119048
 20
-0.513227
 30
0.0
  0
SPLINE
  5
122
100
AcDbEntity
  8
Layer_1
 62
7
100
AcDbSpline
 70
8
 71
3
 72
8
 73
4
 74
0
 40
0
 40
0
 40
0
 40
0
 40
1
 40
1
 40
1
 40
1
 10
-1.119048
 20
-0.513227
 30
0.0
 10
-1.115088
 20
-0.512238
 30
0.0
 10
-1.108665
 20
-0.506714
 30
0.0
 10
-1.105820
 20
-0.505291
 30
0.0
  0
SPLINE
  5
123
100
AcDbEntity
  8
Layer_1
 62
7
100
AcDbSpline
 70
8
 71
3
 72
8
 73
4
 74
0
 40
0
 40
0
 40
0
 40
0
 40
1
 40
1
 40
1
 40
1
 10
-1.105820
 20
-0.505291
 30
0.0
 10
-1.101573
 20
-0.503167
 30
0.0
 10
-1.096840
 20
-0.502124
 30
0.0
 10
-1.092593
 20
-0.500000
 30
0.0
  0
SPLINE
  5
124
100
AcDbEntity
  8
Layer_1
 62
7
100
AcDbSpline
 70
8
 71
3
 72
8
 73
4
 74
0
 40
0
 40
0
 40
0
 40
0
 40
1
 40
1
 40
1
 40
1
 10
-1.092593
 20
-0.500000
 30
0.0
 10
-1.087994
 20
-0.497700
 30
0.0
 10
-1.084046
 20
-0.494191
 30
0.0
 10
-1.079365
 20
-0.492064
 30
0.0
  0
SPLINE
  5
125
100
AcDbEntity
  8
Layer_1
 62
7
100
AcDbSpline
 70
8
 71
3
 72
8
 73
4
 74
0
 40
0
 40
0
 40
0
 40
0
 40
1
 40
1
 40
1
 40
1
 10
-1.079365
 20
-0.492064
 30
0.0
 10
-1.075067
 20
-0.490110
 30
0.0
 10
-1.048521
 20
-0.482126
 30
0.0
 10
-1.044974
 20
-0.481481
 30
0.0
  0
SPLINE
  5
126
100
AcDbEntity
  8
Layer_1
 62
7
100
AcDbSpline
 70
8
 71
3
 72
8
 73
4
 74
0
 40
0
 40
0
 40
0
 40
0
 40
1
 40
1
 40
1
 40
1
 10
-1.044974
 20
-0.481481
 30
0.0
 10
-1.041503
 20
-0.480850
 30
0.0
 10
-1.037883
 20
-0.481980
 30
0.0
 10
-1.034392
 20
-0.481481
 30
0.0
  0
SPLINE
  5
127
100
AcDbEntity
  8
Layer_1
 62
7
100
AcDbSpline
 70
8
 71
3
 72
8
 73
4
 74
0
 40
0
 40
0
 40
0
 40
0
 40
1
 40
1
 40
1
 40
1
 10
-1.034392
 20
-0.481481
 30
0.0
 10
-1.031631
 20
-0.481087
 30
0.0
 10
-1.029101
 20
-0.479718
 30
0.0
 10
-1.026455
 20
-0.478836
 30
0.0
  0
SPLINE
  5
128
100
AcDbEntity
  8
Layer_1
 62
7
100
AcDbSpline
 70
8
 71
3
 72
8
 73
4
 74
0
 40
0
 40
0
 40
0
 40
0
 40
1
 40
1
 40
1
 40
1
 10
-1.026455
 20
-0.478836
 30
0.0
 10
-1.021164
 20
-0.477072
 30
0.0
 10
-1.016026
 20
-0.474755
 30
0.0
 10
-1.010582
 20
-0.473545
 30
0.0
  0
SPLINE
  5
129
100
AcDbEntity
  8
Layer_1
 62
7
100
AcDbSpline
 70
8
 71
3
 72
8
 73
4
 74
0
 40
0
 40
0
 40
0
 40
0
 40
1
 40
1
 40
1
 40
1
 10
-1.010582
 20
-0.473545
 30
0.0
 10
-1.008000
 20
-0.472971
 30
0.0
 10
-1.005291
 20
-0.473545
 30
0.0
 10
-1.002645
 20
-0.473545
 30
0.0
  0
SPLINE
  5
12a
100
AcDbEntity
  8
Layer_1
 62
7
100
AcDbSpline
 70
8
 71
3
 72
8
 73
4
 74
0
 40
0
 40
0
 40
0
 40
0
 40
1
 40
1
 40
1
 40
1
 10
-1.002645
 20
-0.473545
 30
0.0
 10
-0.998236
 20
-0.473545
 30
0.0
 10
-0.993827
 20
-0.473545
 30
0.0
 10
-0.989418
 20
-0.473545
 30
0.0
  0
SPLINE
  5
12b
100
AcDbEntity
  8
Layer_1
 62
7
100
AcDbSpline
 70
8
 71
3
 72
8
 73
4
 74
0
 40
0
 40
0
 40
0
 40
0
 40
1
 40
1
 40
1
 40
1
 10
-0.989418
 20
-0.473545
 30
0.0
 10
-0.984972
 20
-0.473545
 30
0.0
 10
-0.981561
 20
-0.472103
 30
0.0
 10
-0.978836
 20
-0.476190
 30
0.0
  0
SPLINE
  5
12c
100
AcDbEntity
  8
Layer_1
 62
7
100
AcDbSpline
 70
8
 71
3
 72
8
 73
4
 74
0
 40
0
 40
0
 40
0
 40
0
 40
1
 40
1
 40
1
 40
1
 10
-0.978836
 20
-0.476190
 30
0.0
 10
-0.973395
 20
-0.484352
 30
0.0
 10
-0.975051
 20
-0.492102
 30
0.0
 10
-0.973545
 20
-0.502645
 30
0.0
  0
SPLINE
  5
12d
100
AcDbEntity
  8
Layer_1
 62
7
100
AcDbSpline
 70
8
 71
3
 72
8
 73
4
 74
0
 40
0
 40
0
 40
0
 40
0
 40
1
 40
1
 40
1
 40
1
 10
-0.973545
 20
-0.502645
 30
0.0
 10
-0.969885
 20
-0.528268
 30
0.0
 10
-0.970899
 20
-0.508942
 30
0.0
 10
-0.970899
 20
-0.537037
 30
0.0
  0
SPLINE
  5
12e
100
AcDbEntity
  8
Layer_1
 62
7
100
AcDbSpline
 70
8
 71
3
 72
8
 73
4
 74
0
 40
0
 40
0
 40
0
 40
0
 40
1
 40
1
 40
1
 40
1
 10
-0.970899
 20
-0.537037
 30
0.0
 10
-0.970899
 20
-0.543210
 30
0.0
 10
-0.970899
 20
-0.549383
 30
0.0
 10
-0.970899
 20
-0.555556
 30
0.0
  0
SPLINE
  5
12f
100
AcDbEntity
  8
Layer_1
 62
7
100
AcDbSpline
 70
8
 71
3
 72
8
 73
4
 74
0
 40
0
 40
0
 40
0
 40
0
 40
1
 40
1
 40
1
 40
1
 10
-0.970899
 20
-0.555556
 30
0.0
 10
-0.970899
 20
-0.559965
 30
0.0
 10
-0.970353
 20
-0.564408
 30
0.0
 10
-0.970899
 20
-0.568783
 30
0.0
  0
SPLINE
  5
130
100
AcDbEntity
  8
Layer_1
 62
7
100
AcDbSpline
 70
8
 71
3
 72
8
 73
4
 74
0
 40
0
 40
0
 40
0
 40
0
 40
1
 40
1
 40
1
 40
1
 10
-0.970899
 20
-0.568783
 30
0.0
 10
-0.971245
 20
-0.571550
 30
0.0
 10
-0.973087
 20
-0.573969
 30
0.0
 10
-0.973545
 20
-0.576720
 30
0.0
  0
SPLINE
  5
131
100
AcDbEntity
  8
Layer_1
 62
7
100
AcDbSpline
 70
8
 71
3
 72
8
 73
4
 74
0
 40
0
 40
0
 40
0
 40
0
 40
1
 40
1
 40
1
 40
1
 10
-0.973545
 20
-0.576720
 30
0.0
 10
-0.974415
 20
-0.581939
 30
0.0
 10
-0.972507
 20
-0.587404
 30
0.0
 10
-0.973545
 20
-0.592593
 30
0.0
  0
SPLINE
  5
132
100
AcDbEntity
  8
Layer_1
 62
7
100
AcDbSpline
 70
8
 71
3
 72
8
 73
4
 74
0
 40
0
 40
0
 40
0
 40
0
 40
1
 40
1
 40
1
 40
1
 10
-0.973545
 20
-0.592593
 30
0.0
 10
-0.973932
 20
-0.594526
 30
0.0
 10
-0.975414
 20
-0.596071
 30
0.0
 10
-0.976190
 20
-0.597884
 30
0.0
  0
SPLINE
  5
133
100
AcDbEntity
  8
Layer_1
 62
7
100
AcDbSpline
 70
8
 71
3
 72
8
 73
4
 74
0
 40
0
 40
0
 40
0
 40
0
 40
1
 40
1
 40
1
 40
1
 10
-0.976190
 20
-0.597884
 30
0.0
 10
-0.978061
 20
-0.602248
 30
0.0
 10
-0.980177
 20
-0.606545
 30
0.0
 10
-0.981481
 20
-0.611111
 30
0.0
  0
SPLINE
  5
134
100
AcDbEntity
  8
Layer_1
 62
7
100
AcDbSpline
 70
8
 71
3
 72
8
 73
4
 74
0
 40
0
 40
0
 40
0
 40
0
 40
1
 40
1
 40
1
 40
1
 10
-0.981481
 20
-0.611111
 30
0.0
 10
-0.981966
 20
-0.612807
 30
0.0
 10
-0.980693
 20
-0.614825
 30
0.0
 10
-0.981481
 20
-0.616402
 30
0.0
  0
SPLINE
  5
135
100
AcDbEntity
  8
Layer_1
 62
7
100
AcDbSpline
 70
8
 71
3
 72
8
 73
4
 74
0
 40
0
 40
0
 40
0
 40
0
 40
1
 40
1
 40
1
 40
1
 10
-0.981481
 20
-0.616402
 30
0.0
 10
-0.982597
 20
-0.618633
 30
0.0
 10
-0.985389
 20
-0.619618
 30
0.0
 10
-0.986773
 20
-0.621693
 30
0.0
  0
SPLINE
  5
136
100
AcDbEntity
  8
Layer_1
 62
7
100
AcDbSpline
 70
8
 71
3
 72
8
 73
4
 74
0
 40
0
 40
0
 40
0
 40
0
 40
1
 40
1
 40
1
 40
1
 10
-0.986773
 20
-0.621693
 30
0.0
 10
-0.988960
 20
-0.624974
 30
0.0
 10
-0.989771
 20
-0.629066
 30
0.0
 10
-0.992064
 20
-0.632275
 30
0.0
  0
SPLINE
  5
137
100
AcDbEntity
  8
Layer_1
 62
7
100
AcDbSpline
 70
8
 71
3
 72
8
 73
4
 74
0
 40
0
 40
0
 40
0
 40
0
 40
1
 40
1
 40
1
 40
1
 10
-0.992064
 20
-0.632275
 30
0.0
 10
-0.994238
 20
-0.635320
 30
0.0
 10
-0.997605
 20
-0.637337
 30
0.0
 10
-1.000000
 20
-0.640212
 30
0.0
  0
SPLINE
  5
138
100
AcDbEntity
  8
Layer_1
 62
7
100
AcDbSpline
 70
8
 71
3
 72
8
 73
4
 74
0
 40
0
 40
0
 40
0
 40
0
 40
1
 40
1
 40
1
 40
1
 10
-1.000000
 20
-0.640212
 30
0.0
 10
-1.002035
 20
-0.642654
 30
0.0
 10
-1.003527
 20
-0.645503
 30
0.0
 10
-1.005291
 20
-0.648148
 30
0.0
  0
SPLINE
  5
139
100
AcDbEntity
  8
Layer_1
 62
7
100
AcDbSpline
 70
8
 71
3
 72
8
 73
4
 74
0
 40
0
 40
0
 40
0
 40
0
 40
1
 40
1
 40
1
 40
1
 10
-1.005291
 20
-0.648148
 30
0.0
 10
-1.008818
 20
-0.653439
 30
0.0
 10
-1.012858
 20
-0.658422
 30
0.0
 10
-1.015873
 20
-0.664021
 30
0.0
  0
SPLINE
  5
13a
100
AcDbEntity
  8
Layer_1
 62
7
100
AcDbSpline
 70
8
 71
3
 72
8
 73
4
 74
0
 40
0
 40
0
 40
0
 40
0
 40
1
 40
1
 40
1
 40
1
 10
-1.015873
 20
-0.664021
 30
0.0
 10
-1.019057
 20
-0.669934
 30
0.0
 10
-1.021164
 20
-0.676367
 30
0.0
 10
-1.023810
 20
-0.682540
 30
0.0
  0
SPLINE
  5
13b
100
AcDbEntity
  8
Layer_1
 62
7
100
AcDbSpline
 70
8
 71
3
 72
8
 73
4
 74
0
 40
0
 40
0
 40
0
 40
0
 40
1
 40
1
 40
1
 40
1
 10
-1.023810
 20
-0.682540
 30
0.0
 10
-1.026455
 20
-0.688712
 30
0.0
 10
-1.030016
 20
-0.694569
 30
0.0
 10
-1.031746
 20
-0.701058
 30
0.0
  0
SPLINE
  5
13c
100
AcDbEntity
  8
Layer_1
 62
7
100
AcDbSpline
 70
8
 71
3
 72
8
 73
4
 74
0
 40
0
 40
0
 40
0
 40
0
 40
1
 40
1
 40
1
 40
1
 10
-1.031746
 20
-0.701058
 30
0.0
 10
-1.039853
 20
-0.710080
 30
0.0
 10
-1.032481
 20
-0.720608
 30
0.0
 10
-1.034392
 20
-0.730159
 30
0.0
  0
SPLINE
  5
13d
100
AcDbEntity
  8
Layer_1
 62
7
100
AcDbSpline
 70
8
 71
3
 72
8
 73
4
 74
0
 40
0
 40
0
 40
0
 40
0
 40
1
 40
1
 40
1
 40
1
 10
-1.034392
 20
-0.730159
 30
0.0
 10
-1.034778
 20
-0.732092
 30
0.0
 10
-1.036155
 20
-0.733686
 30
0.0
 10
-1.037037
 20
-0.735450
 30
0.0
  0
SPLINE
  5
13e
100
AcDbEntity
  8
Layer_1
 62
7
100
AcDbSpline
 70
8
 71
3
 72
8
 73
4
 74
0
 40
0
 40
0
 40
0
 40
0
 40
1
 40
1
 40
1
 40
1
 10
-1.037037
 20
-0.735450
 30
0.0
 10
-1.037037
 20
-0.740741
 30
0.0
 10
-1.037037
 20
-0.746032
 30
0.0
 10
-1.037037
 20
-0.751323
 30
0.0
  0
SPLINE
  5
13f
100
AcDbEntity
  8
Layer_1
 62
7
100
AcDbSpline
 70
8
 71
3
 72
8
 73
4
 74
0
 40
0
 40
0
 40
0
 40
0
 40
1
 40
1
 40
1
 40
1
 10
-1.037037
 20
-0.751323
 30
0.0
 10
-1.037037
 20
-0.760141
 30
0.0
 10
-1.037037
 20
-0.768959
 30
0.0
 10
-1.037037
 20
-0.777778
 30
0.0
  0
SPLINE
  5
140
100
AcDbEntity
  8
Layer_1
 62
7
100
AcDbSpline
 70
8
 71
3
 72
8
 73
4
 74
0
 40
0
 40
0
 40
0
 40
0
 40
1
 40
1
 40
1
 40
1
 10
-1.037037
 20
-0.777778
 30
0.0
 10
-1.037037
 20
-0.780423
 30
0.0
 10
-1.037679
 20
-0.783148
 30
0.0
 10
-1.037037
 20
-0.785714
 30
0.0
  0
SPLINE
  5
141
100
AcDbEntity
  8
Layer_1
 62
7
100
AcDbSpline
 70
8
 71
3
 72
8
 73
4
 74
0
 40
0
 40
0
 40
0
 40
0
 40
1
 40
1
 40
1
 40
1
 10
-1.037037
 20
-0.785714
 30
0.0
 10
-1.035885
 20
-0.790321
 30
0.0
 10
-1.033413
 20
-0.794495
 30
0.0
 10
-1.031746
 20
-0.798942
 30
0.0
  0
SPLINE
  5
142
100
AcDbEntity
  8
Layer_1
 62
7
100
AcDbSpline
 70
8
 71
3
 72
8
 73
4
 74
0
 40
0
 40
0
 40
0
 40
0
 40
1
 40
1
 40
1
 40
1
 10
-1.031746
 20
-0.798942
 30
0.0
 10
-1.030767
 20
-0.801553
 30
0.0
 10
-1.030348
 20
-0.804384
 30
0.0
 10
-1.029101
 20
-0.806878
 30
0.0
  0
SPLINE
  5
143
100
AcDbEntity
  8
Layer_1
 62
7
100
AcDbSpline
 70
8
 71
3
 72
8
 73
4
 74
0
 40
0
 40
0
 40
0
 40
0
 40
1
 40
1
 40
1
 40
1
 10
-1.029101
 20
-0.806878
 30
0.0
 10
-1.025040
 20
-0.814999
 30
0.0
 10
-1.019560
 20
-0.822391
 30
0.0
 10
-1.015873
 20
-0.830688
 30
0.0
  0
SPLINE
  5
144
100
AcDbEntity
  8
Layer_1
 62
7
100
AcDbSpline
 70
8
 71
3
 72
8
 73
4
 74
0
 40
0
 40
0
 40
0
 40
0
 40
1
 40
1
 40
1
 40
1
 10
-1.015873
 20
-0.830688
 30
0.0
 10
-1.012475
 20
-0.838333
 30
0.0
 10
-1.011999
 20
-0.847184
 30
0.0
 10
-1.007936
 20
-0.854497
 30
0.0
  0
SPLINE
  5
145
100
AcDbEntity
  8
Layer_1
 62
7
100
AcDbSpline
 70
8
 71
3
 72
8
 73
4
 74
0
 40
0
 40
0
 40
0
 40
0
 40
1
 40
1
 40
1
 40
1
 10
-1.007936
 20
-0.854497
 30
0.0
 10
-1.003054
 20
-0.863287
 30
0.0
 10
-0.995451
 20
-0.870263
 30
0.0
 10
-0.989418
 20
-0.878307
 30
0.0
  0
SPLINE
  5
146
100
AcDbEntity
  8
Layer_1
 62
7
100
AcDbSpline
 70
8
 71
3
 72
8
 73
4
 74
0
 40
0
 40
0
 40
0
 40
0
 40
1
 40
1
 40
1
 40
1
 10
-0.989418
 20
-0.878307
 30
0.0
 10
-0.984866
 20
-0.884376
 30
0.0
 10
-0.981554
 20
-0.891461
 30
0.0
 10
-0.976190
 20
-0.896825
 30
0.0
  0
SPLINE
  5
147
100
AcDbEntity
  8
Layer_1
 62
7
100
AcDbSpline
 70
8
 71
3
 72
8
 73
4
 74
0
 40
0
 40
0
 40
0
 40
0
 40
1
 40
1
 40
1
 40
1
 10
-0.976190
 20
-0.896825
 30
0.0
 10
-0.960038
 20
-0.912978
 30
0.0
 10
-0.935142
 20
-0.919572
 30
0.0
 10
-0.915344
 20
-0.928571
 30
0.0
  0
SPLINE
  5
148
100
AcDbEntity
  8
Layer_1
 62
7
100
AcDbSpline
 70
8
 71
3
 72
8
 73
4
 74
0
 40
0
 40
0
 40
0
 40
0
 40
1
 40
1
 40
1
 40
1
 10
-0.915344
 20
-0.928571
 30
0.0
 10
-0.906368
 20
-0.932651
 30
0.0
 10
-0.898043
 20
-0.938137
 30
0.0
 10
-0.888889
 20
-0.941799
 30
0.0
  0
SPLINE
  5
149
100
AcDbEntity
  8
Layer_1
 62
7
100
AcDbSpline
 70
8
 71
3
 72
8
 73
4
 74
0
 40
0
 40
0
 40
0
 40
0
 40
1
 40
1
 40
1
 40
1
 10
-0.888889
 20
-0.941799
 30
0.0
 10
-0.884714
 20
-0.943469
 30
0.0
 10
-0.879858
 20
-0.942830
 30
0.0
 10
-0.875661
 20
-0.944444
 30
0.0
  0
SPLINE
  5
14a
100
AcDbEntity
  8
Layer_1
 62
7
100
AcDbSpline
 70
8
 71
3
 72
8
 73
4
 74
0
 40
0
 40
0
 40
0
 40
0
 40
1
 40
1
 40
1
 40
1
 10
-0.875661
 20
-0.944444
 30
0.0
 10
-0.868300
 20
-0.947276
 30
0.0
 10
-0.861935
 20
-0.952401
 30
0.0
 10
-0.854497
 20
-0.955026
 30
0.0
  0
SPLINE
  5
14b
100
AcDbEntity
  8
Layer_1
 62
7
100
AcDbSpline
 70
8
 71
3
 72
8
 73
4
 74
0
 40
0
 40
0
 40
0
 40
0
 40
1
 40
1
 40
1
 40
1
 10
-0.854497
 20
-0.955026
 30
0.0
 10
-0.846831
 20
-0.957732
 30
0.0
 10
-0.838550
 20
-0.958248
 30
0.0
 10
-0.830688
 20
-0.960317
 30
0.0
  0
SPLINE
  5
14c
100
AcDbEntity
  8
Layer_1
 62
7
100
AcDbSpline
 70
8
 71
3
 72
8
 73
4
 74
0
 40
0
 40
0
 40
0
 40
0
 40
1
 40
1
 40
1
 40
1
 10
-0.830688
 20
-0.960317
 30
0.0
 10
-0.821784
 20
-0.962660
 30
0.0
 10
-0.813235
 20
-0.966325
 30
0.0
 10
-0.804233
 20
-0.968254
 30
0.0
  0
SPLINE
  5
14d
100
AcDbEntity
  8
Layer_1
 62
7
100
AcDbSpline
 70
8
 71
3
 72
8
 73
4
 74
0
 40
0
 40
0
 40
0
 40
0
 40
1
 40
1
 40
1
 40
1
 10
-0.804233
 20
-0.968254
 30
0.0
 10
-0.785714
 20
-0.972222
 30
0.0
 10
-0.800265
 20
-0.966270
 30
0.0
 10
-0.788360
 20
-0.968254
 30
0.0
  0
SPLINE
  5
14e
100
AcDbEntity
  8
Layer_1
 62
7
100
AcDbSpline
 70
8
 71
3
 72
8
 73
4
 74
0
 40
0
 40
0
 40
0
 40
0
 40
1
 40
1
 40
1
 40
1
 10
-0.788360
 20
-0.968254
 30
0.0
 10
-0.761546
 20
-0.972723
 30
0.0
 10
-0.800003
 20
-0.971332
 30
0.0
 10
-0.751323
 20
-0.973545
 30
0.0
  0
SPLINE
  5
14f
100
AcDbEntity
  8
Layer_1
 62
7
100
AcDbSpline
 70
8
 71
3
 72
8
 73
4
 74
0
 40
0
 40
0
 40
0
 40
0
 40
1
 40
1
 40
1
 40
1
 10
-0.751323
 20
-0.973545
 30
0.0
 10
-0.740752
 20
-0.974025
 30
0.0
 10
-0.730159
 20
-0.973545
 30
0.0
 10
-0.719577
 20
-0.973545
 30
0.0
  0
SPLINE
  5
150
100
AcDbEntity
  8
Layer_1
 62
7
100
AcDbSpline
 70
8
 71
3
 72
8
 73
4
 74
0
 40
0
 40
0
 40
0
 40
0
 40
1
 40
1
 40
1
 40
1
 10
-0.719577
 20
-0.973545
 30
0.0
 10
-0.702822
 20
-0.973545
 30
0.0
 10
-0.686067
 20
-0.973545
 30
0.0
 10
-0.669312
 20
-0.973545
 30
0.0
  0
SPLINE
  5
151
100
AcDbEntity
  8
Layer_1
 62
7
100
AcDbSpline
 70
8
 71
3
 72
8
 73
4
 74
0
 40
0
 40
0
 40
0
 40
0
 40
1
 40
1
 40
1
 40
1
 10
-0.669312
 20
-0.973545
 30
0.0
 10
-0.645503
 20
-0.973545
 30
0.0
 10
-0.621693
 20
-0.973545
 30
0.0
 10
-0.597884
 20
-0.973545
 30
0.0
  0
SPLINE
  5
152
100
AcDbEntity
  8
Layer_1
 62
7
100
AcDbSpline
 70
8
 71
3
 72
8
 73
4
 74
0
 40
0
 40
0
 40
0
 40
0
 40
1
 40
1
 40
1
 40
1
 10
-0.597884
 20
-0.973545
 30
0.0
 10
-0.589065
 20
-0.973545
 30
0.0
 10
-0.580203
 20
-0.974422
 30
0.0
 10
-0.571429
 20
-0.973545
 30
0.0
  0
SPLINE
  5
153
100
AcDbEntity
  8
Layer_1
 62
7
100
AcDbSpline
 70
8
 71
3
 72
8
 73
4
 74
0
 40
0
 40
0
 40
0
 40
0
 40
1
 40
1
 40
1
 40
1
 10
-0.571429
 20
-0.973545
 30
0.0
 10
-0.567811
 20
-0.973183
 30
0.0
 10
-0.564468
 20
-0.971229
 30
0.0
 10
-0.560847
 20
-0.970899
 30
0.0
  0
SPLINE
  5
154
100
AcDbEntity
  8
Layer_1
 62
7
100
AcDbSpline
 70
8
 71
3
 72
8
 73
4
 74
0
 40
0
 40
0
 40
0
 40
0
 40
1
 40
1
 40
1
 40
1
 10
-0.560847
 20
-0.970899
 30
0.0
 10
-0.554699
 20
-0.970341
 30
0.0
 10
-0.548417
 20
-0.971914
 30
0.0
 10
-0.542328
 20
-0.970899
 30
0.0
  0
SPLINE
  5
155
100
AcDbEntity
  8
Layer_1
 62
7
100
AcDbSpline
 70
8
 71
3
 72
8
 73
4
 74
0
 40
0
 40
0
 40
0
 40
0
 40
1
 40
1
 40
1
 40
1
 10
-0.542328
 20
-0.970899
 30
0.0
 10
-0.537644
 20
-0.970119
 30
0.0
 10
-0.533689
 20
-0.966832
 30
0.0
 10
-0.529101
 20
-0.965608
 30
0.0
  0
SPLINE
  5
156
100
AcDbEntity
  8
Layer_1
 62
7
100
AcDbSpline
 70
8
 71
3
 72
8
 73
4
 74
0
 40
0
 40
0
 40
0
 40
0
 40
1
 40
1
 40
1
 40
1
 10
-0.529101
 20
-0.965608
 30
0.0
 10
-0.520411
 20
-0.963291
 30
0.0
 10
-0.511424
 20
-0.962268
 30
0.0
 10
-0.502646
 20
-0.960317
 30
0.0
  0
SPLINE
  5
157
100
AcDbEntity
  8
Layer_1
 62
7
100
AcDbSpline
 70
8
 71
3
 72
8
 73
4
 74
0
 40
0
 40
0
 40
0
 40
0
 40
1
 40
1
 40
1
 40
1
 10
-0.502646
 20
-0.960317
 30
0.0
 10
-0.495547
 20
-0.958740
 30
0.0
 10
-0.488330
 20
-0.957472
 30
0.0
 10
-0.481481
 20
-0.955026
 30
0.0
  0
SPLINE
  5
158
100
AcDbEntity
  8
Layer_1
 62
7
100
AcDbSpline
 70
8
 71
3
 72
8
 73
4
 74
0
 40
0
 40
0
 40
0
 40
0
 40
1
 40
1
 40
1
 40
1
 10
-0.481481
 20
-0.955026
 30
0.0
 10
-0.475911
 20
-0.953037
 30
0.0
 10
-0.470899
 20
-0.949735
 30
0.0
 10
-0.465608
 20
-0.947090
 30
0.0
  0
SPLINE
  5
159
100
AcDbEntity
  8
Layer_1
 62
7
100
AcDbSpline
 70
8
 71
3
 72
8
 73
4
 74
0
 40
0
 40
0
 40
0
 40
0
 40
1
 40
1
 40
1
 40
1
 10
-0.465608
 20
-0.947090
 30
0.0
 10
-0.411451
 20
-0.920011
 30
0.0
 10
-0.484088
 20
-0.956837
 30
0.0
 10
-0.436508
 20
-0.931217
 30
0.0
  0
SPLINE
  5
15a
100
AcDbEntity
  8
Layer_1
 62
7
100
AcDbSpline
 70
8
 71
3
 72
8
 73
4
 74
0
 40
0
 40
0
 40
0
 40
0
 40
1
 40
1
 40
1
 40
1
 10
-0.436508
 20
-0.931217
 30
0.0
 10
-0.429563
 20
-0.927477
 30
0.0
 10
-0.421998
 20
-0.924869
 30
0.0
 10
-0.415344
 20
-0.920635
 30
0.0
  0
SPLINE
  5
15b
100
AcDbEntity
  8
Layer_1
 62
7
100
AcDbSpline
 70
8
 71
3
 72
8
 73
4
 74
0
 40
0
 40
0
 40
0
 40
0
 40
1
 40
1
 40
1
 40
1
 10
-0.415344
 20
-0.920635
 30
0.0
 10
-0.412188
 20
-0.918626
 30
0.0
 10
-0.410248
 20
-0.915133
 30
0.0
 10
-0.407407
 20
-0.912698
 30
0.0
  0
SPLINE
  5
15c
100
AcDbEntity
  8
Layer_1
 62
7
100
AcDbSpline
 70
8
 71
3
 72
8
 73
4
 74
0
 40
0
 40
0
 40
0
 40
0
 40
1
 40
1
 40
1
 40
1
 10
-0.407407
 20
-0.912698
 30
0.0
 10
-0.404060
 20
-0.909829
 30
0.0
 10
-0.400353
 20
-0.907407
 30
0.0
 10
-0.396825
 20
-0.904762
 30
0.0
  0
SPLINE
  5
15d
100
AcDbEntity
  8
Layer_1
 62
7
100
AcDbSpline
 70
8
 71
3
 72
8
 73
4
 74
0
 40
0
 40
0
 40
0
 40
0
 40
1
 40
1
 40
1
 40
1
 10
-0.396825
 20
-0.904762
 30
0.0
 10
-0.393298
 20
-0.902116
 30
0.0
 10
-0.389686
 20
-0.899580
 30
0.0
 10
-0.386243
 20
-0.896825
 30
0.0
  0
SPLINE
  5
15e
100
AcDbEntity
  8
Layer_1
 62
7
100
AcDbSpline
 70
8
 71
3
 72
8
 73
4
 74
0
 40
0
 40
0
 40
0
 40
0
 40
1
 40
1
 40
1
 40
1
 10
-0.386243
 20
-0.896825
 30
0.0
 10
-0.385270
 20
-0.896046
 30
0.0
 10
-0.384036
 20
-0.895348
 30
0.0
 10
-0.383598
 20
-0.894180
 30
0.0
  0
SPLINE
  5
15f
100
AcDbEntity
  8
Layer_1
 62
7
100
AcDbSpline
 70
8
 71
3
 72
8
 73
4
 74
0
 40
0
 40
0
 40
0
 40
0
 40
1
 40
1
 40
1
 40
1
 10
-0.383598
 20
-0.894180
 30
0.0
 10
-0.380379
 20
-0.885597
 30
0.0
 10
-0.376399
 20
-0.869383
 30
0.0
 10
-0.375661
 20
-0.859788
 30
0.0
  0
SPLINE
  5
160
100
AcDbEntity
  8
Layer_1
 62
7
100
AcDbSpline
 70
8
 71
3
 72
8
 73
4
 74
0
 40
0
 40
0
 40
0
 40
0
 40
1
 40
1
 40
1
 40
1
 10
-0.375661
 20
-0.859788
 30
0.0
 10
-0.375188
 20
-0.853634
 30
0.0
 10
-0.375661
 20
-0.847443
 30
0.0
 10
-0.375661
 20
-0.841270
 30
0.0
  0
SPLINE
  5
161
100
AcDbEntity
  8
Layer_1
 62
7
100
AcDbSpline
 70
8
 71
3
 72
8
 73
4
 74
0
 40
0
 40
0
 40
0
 40
0
 40
1
 40
1
 40
1
 40
1
 10
-0.375661
 20
-0.841270
 30
0.0
 10
-0.375661
 20
-0.834215
 30
0.0
 10
-0.375661
 20
-0.827160
 30
0.0
 10
-0.375661
 20
-0.820106
 30
0.0
  0
SPLINE
  5
162
100
AcDbEntity
  8
Layer_1
 62
7
100
AcDbSpline
 70
8
 71
3
 72
8
 73
4
 74
0
 40
0
 40
0
 40
0
 40
0
 40
1
 40
1
 40
1
 40
1
 10
-0.375661
 20
-0.820106
 30
0.0
 10
-0.375661
 20
-0.817460
 30
0.0
 10
-0.374935
 20
-0.814713
 30
0.0
 10
-0.375661
 20
-0.812169
 30
0.0
  0
SPLINE
  5
163
100
AcDbEntity
  8
Layer_1
 62
7
100
AcDbSpline
 70
8
 71
3
 72
8
 73
4
 74
0
 40
0
 40
0
 40
0
 40
0
 40
1
 40
1
 40
1
 40
1
 10
-0.375661
 20
-0.812169
 30
0.0
 10
-0.376745
 20
-0.808377
 30
0.0
 10
-0.379300
 20
-0.805168
 30
0.0
 10
-0.380952
 20
-0.801587
 30
0.0
  0
SPLINE
  5
164
100
AcDbEntity
  8
Layer_1
 62
7
100
AcDbSpline
 70
8
 71
3
 72
8
 73
4
 74
0
 40
0
 40
0
 40
0
 40
0
 40
1
 40
1
 40
1
 40
1
 10
-0.380952
 20
-0.801587
 30
0.0
 10
-0.384592
 20
-0.793702
 30
0.0
 10
-0.386983
 20
-0.785174
 30
0.0
 10
-0.391534
 20
-0.777778
 30
0.0
  0
SPLINE
  5
165
100
AcDbEntity
  8
Layer_1
 62
7
100
AcDbSpline
 70
8
 71
3
 72
8
 73
4
 74
0
 40
0
 40
0
 40
0
 40
0
 40
1
 40
1
 40
1
 40
1
 10
-0.391534
 20
-0.777778
 30
0.0
 10
-0.394149
 20
-0.773529
 30
0.0
 10
-0.399075
 20
-0.771150
 30
0.0
 10
-0.402116
 20
-0.767196
 30
0.0
  0
SPLINE
  5
166
100
AcDbEntity
  8
Layer_1
 62
7
100
AcDbSpline
 70
8
 71
3
 72
8
 73
4
 74
0
 40
0
 40
0
 40
0
 40
0
 40
1
 40
1
 40
1
 40
1
 10
-0.402116
 20
-0.767196
 30
0.0
 10
-0.450882
 20
-0.703801
 30
0.0
 10
-0.380505
 20
-0.786576
 30
0.0
 10
-0.439153
 20
-0.716931
 30
0.0
  0
SPLINE
  5
167
100
AcDbEntity
  8
Layer_1
 62
7
100
AcDbSpline
 70
8
 71
3
 72
8
 73
4
 74
0
 40
0
 40
0
 40
0
 40
0
 40
1
 40
1
 40
1
 40
1
 10
-0.439153
 20
-0.716931
 30
0.0
 10
-0.498930
 20
-0.645946
 30
0.0
 10
-0.433488
 20
-0.722597
 30
0.0
 10
-0.473545
 20
-0.682540
 30
0.0
  0
SPLINE
  5
168
100
AcDbEntity
  8
Layer_1
 62
7
100
AcDbSpline
 70
8
 71
3
 72
8
 73
4
 74
0
 40
0
 40
0
 40
0
 40
0
 40
1
 40
1
 40
1
 40
1
 10
-0.473545
 20
-0.682540
 30
0.0
 10
-0.480173
 20
-0.675911
 30
0.0
 10
-0.485194
 20
-0.667754
 30
0.0
 10
-0.492063
 20
-0.661376
 30
0.0
  0
SPLINE
  5
169
100
AcDbEntity
  8
Layer_1
 62
7
100
AcDbSpline
 70
8
 71
3
 72
8
 73
4
 74
0
 40
0
 40
0
 40
0
 40
0
 40
1
 40
1
 40
1
 40
1
 10
-0.492063
 20
-0.661376
 30
0.0
 10
-0.497622
 20
-0.656214
 30
0.0
 10
-0.504513
 20
-0.652700
 30
0.0
 10
-0.510582
 20
-0.648148
 30
0.0
  0
SPLINE
  5
16a
100
AcDbEntity
  8
Layer_1
 62
7
100
AcDbSpline
 70
8
 71
3
 72
8
 73
4
 74
0
 40
0
 40
0
 40
0
 40
0
 40
1
 40
1
 40
1
 40
1
 10
-0.510582
 20
-0.648148
 30
0.0
 10
-0.519495
 20
-0.641464
 30
0.0
 10
-0.532880
 20
-0.630439
 30
0.0
 10
-0.539683
 20
-0.621693
 30
0.0
  0
SPLINE
  5
16b
100
AcDbEntity
  8
Layer_1
 62
7
100
AcDbSpline
 70
8
 71
3
 72
8
 73
4
 74
0
 40
0
 40
0
 40
0
 40
0
 40
1
 40
1
 40
1
 40
1
 10
-0.539683
 20
-0.621693
 30
0.0
 10
-0.542104
 20
-0.618580
 30
0.0
 10
-0.542945
 20
-0.614493
 30
0.0
 10
-0.544974
 20
-0.611111
 30
0.0
  0
SPLINE
  5
16c
100
AcDbEntity
  8
Layer_1
 62
7
100
AcDbSpline
 70
8
 71
3
 72
8
 73
4
 74
0
 40
0
 40
0
 40
0
 40
0
 40
1
 40
1
 40
1
 40
1
 10
-0.544974
 20
-0.611111
 30
0.0
 10
-0.545615
 20
-0.610042
 30
0.0
 10
-0.547225
 20
-0.609649
 30
0.0
 10
-0.547619
 20
-0.608466
 30
0.0
  0
SPLINE
  5
16d
100
AcDbEntity
  8
Layer_1
 62
7
100
AcDbSpline
 70
8
 71
3
 72
8
 73
4
 74
0
 40
0
 40
0
 40
0
 40
0
 40
1
 40
1
 40
1
 40
1
 10
-0.547619
 20
-0.608466
 30
0.0
 10
-0.548734
 20
-0.605119
 30
0.0
 10
-0.546764
 20
-0.601306
 30
0.0
 10
-0.547619
 20
-0.597884
 30
0.0
  0
SPLINE
  5
16e
100
AcDbEntity
  8
Layer_1
 62
7
100
AcDbSpline
 70
8
 71
3
 72
8
 73
4
 74
0
 40
0
 40
0
 40
0
 40
0
 40
1
 40
1
 40
1
 40
1
 10
-0.547619
 20
-0.597884
 30
0.0
 10
-0.548097
 20
-0.595971
 30
0.0
 10
-0.549641
 20
-0.594463
 30
0.0
 10
-0.550265
 20
-0.592593
 30
0.0
  0
SPLINE
  5
16f
100
AcDbEntity
  8
Layer_1
 62
7
100
AcDbSpline
 70
8
 71
3
 72
8
 73
4
 74
0
 40
0
 40
0
 40
0
 40
0
 40
1
 40
1
 40
1
 40
1
 10
-0.550265
 20
-0.592593
 30
0.0
 10
-0.550848
 20
-0.590843
 30
0.0
 10
-0.550265
 20
-0.579318
 30
0.0
 10
-0.550265
 20
-0.576720
 30
0.0
  0
SPLINE
  5
170
100
AcDbEntity
  8
Layer_1
 62
7
100
AcDbSpline
 70
8
 71
3
 72
8
 73
4
 74
0
 40
0
 40
0
 40
0
 40
0
 40
1
 40
1
 40
1
 40
1
 10
-0.550265
 20
-0.576720
 30
0.0
 10
-0.550265
 20
-0.571429
 30
0.0
 10
-0.550265
 20
-0.566138
 30
0.0
 10
-0.550265
 20
-0.560847
 30
0.0
  0
SPLINE
  5
171
100
AcDbEntity
  8
Layer_1
 62
7
100
AcDbSpline
 70
8
 71
3
 72
8
 73
4
 74
0
 40
0
 40
0
 40
0
 40
0
 40
1
 40
1
 40
1
 40
1
 10
-0.550265
 20
-0.560847
 30
0.0
 10
-0.550265
 20
-0.559965
 30
0.0
 10
-0.550265
 20
-0.559083
 30
0.0
 10
-0.550265
 20
-0.558201
 30
0.0
  0
SPLINE
  5
172
100
AcDbEntity
  8
Layer_1
 62
7
100
AcDbSpline
 70
8
 71
3
 72
8
 73
4
 74
0
 40
0
 40
0
 40
0
 40
0
 40
1
 40
1
 40
1
 40
1
 10
-0.550265
 20
-0.558201
 30
0.0
 10
-0.550265
 20
-0.557319
 30
0.0
 10
-0.550754
 20
-0.556289
 30
0.0
 10
-0.550265
 20
-0.555556
 30
0.0
  0
SPLINE
  5
173
100
AcDbEntity
  8
Layer_1
 62
7
100
AcDbSpline
 70
8
 71
3
 72
8
 73
4
 74
0
 40
0
 40
0
 40
0
 40
0
 40
1
 40
1
 40
1
 40
1
 10
-0.550265
 20
-0.555556
 30
0.0
 10
-0.541195
 20
-0.541952
 30
0.0
 10
-0.513744
 20
-0.542328
 30
0.0
 10
-0.500000
 20
-0.542328
 30
0.0
  0
SPLINE
  5
174
100
AcDbEntity
  8
Layer_1
 62
7
100
AcDbSpline
 70
8
 71
3
 72
8
 73
4
 74
0
 40
0
 40
0
 40
0
 40
0
 40
1
 40
1
 40
1
 40
1
 10
-0.500000
 20
-0.542328
 30
0.0
 10
-0.485843
 20
-0.542328
 30
0.0
 10
-0.505992
 20
-0.542886
 30
0.0
 10
-0.486772
 20
-0.539682
 30
0.0
  0
SPLINE
  5
175
100
AcDbEntity
  8
Layer_1
 62
7
100
AcDbSpline
 70
8
 71
3
 72
8
 73
4
 74
0
 40
0
 40
0
 40
0
 40
0
 40
1
 40
1
 40
1
 40
1
 10
-0.486772
 20
-0.539682
 30
0.0
 10
-0.484163
 20
-0.539248
 30
0.0
 10
-0.481481
 20
-0.539682
 30
0.0
 10
-0.478836
 20
-0.539682
 30
0.0
  0
SPLINE
  5
176
100
AcDbEntity
  8
Layer_1
 62
7
100
AcDbSpline
 70
8
 71
3
 72
8
 73
4
 74
0
 40
0
 40
0
 40
0
 40
0
 40
1
 40
1
 40
1
 40
1
 10
-0.478836
 20
-0.539682
 30
0.0
 10
-0.473545
 20
-0.539682
 30
0.0
 10
-0.468254
 20
-0.539682
 30
0.0
 10
-0.462963
 20
-0.539682
 30
0.0
  0
SPLINE
  5
177
100
AcDbEntity
  8
Layer_1
 62
7
100
AcDbSpline
 70
8
 71
3
 72
8
 73
4
 74
0
 40
0
 40
0
 40
0
 40
0
 40
1
 40
1
 40
1
 40
1
 10
-0.462963
 20
-0.539682
 30
0.0
 10
-0.459162
 20
-0.539682
 30
0.0
 10
-0.441589
 20
-0.539141
 30
0.0
 10
-0.439153
 20
-0.539682
 30
0.0
  0
SPLINE
  5
178
100
AcDbEntity
  8
Layer_1
 62
7
100
AcDbSpline
 70
8
 71
3
 72
8
 73
4
 74
0
 40
0
 40
0
 40
0
 40
0
 40
1
 40
1
 40
1
 40
1
 10
-0.439153
 20
-0.539682
 30
0.0
 10
-0.434518
 20
-0.540713
 30
0.0
 10
-0.430431
 20
-0.543472
 30
0.0
 10
-0.425926
 20
-0.544974
 30
0.0
  0
SPLINE
  5
179
100
AcDbEntity
  8
Layer_1
 62
7
100
AcDbSpline
 70
8
 71
3
 72
8
 73
4
 74
0
 40
0
 40
0
 40
0
 40
0
 40
1
 40
1
 40
1
 40
1
 10
-0.425926
 20
-0.544974
 30
0.0
 10
-0.422477
 20
-0.546123
 30
0.0
 10
-0.418887
 20
-0.546801
 30
0.0
 10
-0.415344
 20
-0.547619
 30
0.0
  0
SPLINE
  5
17a
100
AcDbEntity
  8
Layer_1
 62
7
100
AcDbSpline
 70
8
 71
3
 72
8
 73
4
 74
0
 40
0
 40
0
 40
0
 40
0
 40
1
 40
1
 40
1
 40
1
 10
-0.415344
 20
-0.547619
 30
0.0
 10
-0.407422
 20
-0.549447
 30
0.0
 10
-0.399448
 20
-0.551048
 30
0.0
 10
-0.391534
 20
-0.552910
 30
0.0
  0
SPLINE
  5
17b
100
AcDbEntity
  8
Layer_1
 62
7
100
AcDbSpline
 70
8
 71
3
 72
8
 73
4
 74
0
 40
0
 40
0
 40
0
 40
0
 40
1
 40
1
 40
1
 40
1
 10
-0.391534
 20
-0.552910
 30
0.0
 10
-0.384456
 20
-0.554576
 30
0.0
 10
-0.377525
 20
-0.556900
 30
0.0
 10
-0.370370
 20
-0.558201
 30
0.0
  0
SPLINE
  5
17c
100
AcDbEntity
  8
Layer_1
 62
7
100
AcDbSpline
 70
8
 71
3
 72
8
 73
4
 74
0
 40
0
 40
0
 40
0
 40
0
 40
1
 40
1
 40
1
 40
1
 10
-0.370370
 20
-0.558201
 30
0.0
 10
-0.367768
 20
-0.558674
 30
0.0
 10
-0.365043
 20
-0.557766
 30
0.0
 10
-0.362434
 20
-0.558201
 30
0.0
  0
SPLINE
  5
17d
100
AcDbEntity
  8
Layer_1
 62
7
100
AcDbSpline
 70
8
 71
3
 72
8
 73
4
 74
0
 40
0
 40
0
 40
0
 40
0
 40
1
 40
1
 40
1
 40
1
 10
-0.362434
 20
-0.558201
 30
0.0
 10
-0.359683
 20
-0.558660
 30
0.0
 10
-0.357264
 20
-0.560501
 30
0.0
 10
-0.354497
 20
-0.560847
 30
0.0
  0
SPLINE
  5
17e
100
AcDbEntity
  8
Layer_1
 62
7
100
AcDbSpline
 70
8
 71
3
 72
8
 73
4
 74
0
 40
0
 40
0
 40
0
 40
0
 40
1
 40
1
 40
1
 40
1
 10
-0.354497
 20
-0.560847
 30
0.0
 10
-0.347497
 20
-0.561722
 30
0.0
 10
-0.340388
 20
-0.560847
 30
0.0
 10
-0.333333
 20
-0.560847
 30
0.0
  0
SPLINE
  5
17f
100
AcDbEntity
  8
Layer_1
 62
7
100
AcDbSpline
 70
8
 71
3
 72
8
 73
4
 74
0
 40
0
 40
0
 40
0
 40
0
 40
1
 40
1
 40
1
 40
1
 10
-0.333333
 20
-0.560847
 30
0.0
 10
-0.331167
 20
-0.560847
 30
0.0
 10
-0.321820
 20
-0.561418
 30
0.0
 10
-0.320106
 20
-0.560847
 30
0.0
  0
SPLINE
  5
180
100
AcDbEntity
  8
Layer_1
 62
7
100
AcDbSpline
 70
8
 71
3
 72
8
 73
4
 74
0
 40
0
 40
0
 40
0
 40
0
 40
1
 40
1
 40
1
 40
1
 10
-0.320106
 20
-0.560847
 30
0.0
 10
-0.318235
 20
-0.560223
 30
0.0
 10
-0.316578
 20
-0.559083
 30
0.0
 10
-0.314815
 20
-0.558201
 30
0.0
  0
SPLINE
  5
181
100
AcDbEntity
  8
Layer_1
 62
7
100
AcDbSpline
 70
8
 71
3
 72
8
 73
4
 74
0
 40
0
 40
0
 40
0
 40
0
 40
1
 40
1
 40
1
 40
1
 10
-0.314815
 20
-0.558201
 30
0.0
 10
-0.313051
 20
-0.557319
 30
0.0
 10
-0.311064
 20
-0.556787
 30
0.0
 10
-0.309524
 20
-0.555556
 30
0.0
  0
SPLINE
  5
182
100
AcDbEntity
  8
Layer_1
 62
7
100
AcDbSpline
 70
8
 71
3
 72
8
 73
4
 74
0
 40
0
 40
0
 40
0
 40
0
 40
1
 40
1
 40
1
 40
1
 10
-0.309524
 20
-0.555556
 30
0.0
 10
-0.300816
 20
-0.548589
 30
0.0
 10
-0.295457
 20
-0.539116
 30
0.0
 10
-0.291005
 20
-0.529101
 30
0.0
  0
SPLINE
  5
183
100
AcDbEntity
  8
Layer_1
 62
7
100
AcDbSpline
 70
8
 71
3
 72
8
 73
4
 74
0
 40
0
 40
0
 40
0
 40
0
 40
1
 40
1
 40
1
 40
1
 10
-0.291005
 20
-0.529101
 30
0.0
 10
-0.289077
 20
-0.524761
 30
0.0
 10
-0.286436
 20
-0.520567
 30
0.0
 10
-0.285714
 20
-0.515873
 30
0.0
  0
SPLINE
  5
184
100
AcDbEntity
  8
Layer_1
 62
7
100
AcDbSpline
 70
8
 71
3
 72
8
 73
4
 74
0
 40
0
 40
0
 40
0
 40
0
 40
1
 40
1
 40
1
 40
1
 10
-0.285714
 20
-0.515873
 30
0.0
 10
-0.284642
 20
-0.508900
 30
0.0
 10
-0.285714
 20
-0.501764
 30
0.0
 10
-0.285714
 20
-0.494709
 30
0.0
  0
SPLINE
  5
185
100
AcDbEntity
  8
Layer_1
 62
7
100
AcDbSpline
 70
8
 71
3
 72
8
 73
4
 74
0
 40
0
 40
0
 40
0
 40
0
 40
1
 40
1
 40
1
 40
1
 10
-0.285714
 20
-0.494709
 30
0.0
 10
-0.285714
 20
-0.490300
 30
0.0
 10
-0.285714
 20
-0.485891
 30
0.0
 10
-0.285714
 20
-0.481481
 30
0.0
  0
SPLINE
  5
186
100
AcDbEntity
  8
Layer_1
 62
7
100
AcDbSpline
 70
8
 71
3
 72
8
 73
4
 74
0
 40
0
 40
0
 40
0
 40
0
 40
1
 40
1
 40
1
 40
1
 10
-0.285714
 20
-0.481481
 30
0.0
 10
-0.285714
 20
-0.474427
 30
0.0
 10
-0.285714
 20
-0.467372
 30
0.0
 10
-0.285714
 20
-0.460317
 30
0.0
  0
SPLINE
  5
187
100
AcDbEntity
  8
Layer_1
 62
7
100
AcDbSpline
 70
8
 71
3
 72
8
 73
4
 74
0
 40
0
 40
0
 40
0
 40
0
 40
1
 40
1
 40
1
 40
1
 10
-0.285714
 20
-0.460317
 30
0.0
 10
-0.285714
 20
-0.455908
 30
0.0
 10
-0.285227
 20
-0.451472
 30
0.0
 10
-0.285714
 20
-0.447090
 30
0.0
  0
SPLINE
  5
188
100
AcDbEntity
  8
Layer_1
 62
7
100
AcDbSpline
 70
8
 71
3
 72
8
 73
4
 74
0
 40
0
 40
0
 40
0
 40
0
 40
1
 40
1
 40
1
 40
1
 10
-0.285714
 20
-0.447090
 30
0.0
 10
-0.286477
 20
-0.440226
 30
0.0
 10
-0.292173
 20
-0.425955
 30
0.0
 10
-0.293651
 20
-0.420635
 30
0.0
  0
SPLINE
  5
189
100
AcDbEntity
  8
Layer_1
 62
7
100
AcDbSpline
 70
8
 71
3
 72
8
 73
4
 74
0
 40
0
 40
0
 40
0
 40
0
 40
1
 40
1
 40
1
 40
1
 10
-0.293651
 20
-0.420635
 30
0.0
 10
-0.299493
 20
-0.399604
 30
0.0
 10
-0.303047
 20
-0.377213
 30
0.0
 10
-0.312169
 20
-0.357143
 30
0.0
  0
SPLINE
  5
18a
100
AcDbEntity
  8
Layer_1
 62
7
100
AcDbSpline
 70
8
 71
3
 72
8
 73
4
 74
0
 40
0
 40
0
 40
0
 40
0
 40
1
 40
1
 40
1
 40
1
 10
-0.312169
 20
-0.357143
 30
0.0
 10
-0.320405
 20
-0.339024
 30
0.0
 10
-0.327406
 20
-0.331483
 30
0.0
 10
-0.338624
 20
-0.317460
 30
0.0
  0
SPLINE
  5
18b
100
AcDbEntity
  8
Layer_1
 62
7
100
AcDbSpline
 70
8
 71
3
 72
8
 73
4
 74
0
 40
0
 40
0
 40
0
 40
0
 40
1
 40
1
 40
1
 40
1
 10
-0.338624
 20
-0.317460
 30
0.0
 10
-0.347777
 20
-0.306020
 30
0.0
 10
-0.367183
 20
-0.280965
 30
0.0
 10
-0.378307
 20
-0.269841
 30
0.0
  0
SPLINE
  5
18c
100
AcDbEntity
  8
Layer_1
 62
7
100
AcDbSpline
 70
8
 71
3
 72
8
 73
4
 74
0
 40
0
 40
0
 40
0
 40
0
 40
1
 40
1
 40
1
 40
1
 10
-0.378307
 20
-0.269841
 30
0.0
 10
-0.380555
 20
-0.267593
 30
0.0
 10
-0.383547
 20
-0.266235
 30
0.0
 10
-0.386243
 20
-0.264550
 30
0.0
  0
SPLINE
  5
18d
100
AcDbEntity
  8
Layer_1
 62
7
100
AcDbSpline
 70
8
 71
3
 72
8
 73
4
 74
0
 40
0
 40
0
 40
0
 40
0
 40
1
 40
1
 40
1
 40
1
 10
-0.386243
 20
-0.264550
 30
0.0
 10
-0.401621
 20
-0.254939
 30
0.0
 10
-0.396472
 20
-0.257813
 30
0.0
 10
-0.412698
 20
-0.251323
 30
0.0
  0
SPLINE
  5
18e
100
AcDbEntity
  8
Layer_1
 62
7
100
AcDbSpline
 70
8
 71
3
 72
8
 73
4
 74
0
 40
0
 40
0
 40
0
 40
0
 40
1
 40
1
 40
1
 40
1
 10
-0.412698
 20
-0.251323
 30
0.0
 10
-0.426862
 20
-0.245657
 30
0.0
 10
-0.425810
 20
-0.244985
 30
0.0
 10
-0.441799
 20
-0.243386
 30
0.0
  0
SPLINE
  5
18f
100
AcDbEntity
  8
Layer_1
 62
7
100
AcDbSpline
 70
8
 71
3
 72
8
 73
4
 74
0
 40
0
 40
0
 40
0
 40
0
 40
1
 40
1
 40
1
 40
1
 10
-0.441799
 20
-0.243386
 30
0.0
 10
-0.445309
 20
-0.243035
 30
0.0
 10
-0.448854
 20
-0.243386
 30
0.0
 10
-0.452381
 20
-0.243386
 30
0.0
  0
SPLINE
  5
190
100
AcDbEntity
  8
Layer_1
 62
7
100
AcDbSpline
 70
8
 71
3
 72
8
 73
4
 74
0
 40
0
 40
0
 40
0
 40
0
 40
1
 40
1
 40
1
 40
1
 10
-0.452381
 20
-0.243386
 30
0.0
 10
-0.457672
 20
-0.243386
 30
0.0
 10
-0.462963
 20
-0.243386
 30
0.0
 10
-0.468254
 20
-0.243386
 30
0.0
  0
SPLINE
  5
191
100
AcDbEntity
  8
Layer_1
 62
7
100
AcDbSpline
 70
8
 71
3
 72
8
 73
4
 74
0
 40
0
 40
0
 40
0
 40
0
 40
1
 40
1
 40
1
 40
1
 10
-0.468254
 20
-0.243386
 30
0.0
 10
-0.470899
 20
-0.243386
 30
0.0
 10
-0.473565
 20
-0.243714
 30
0.0
 10
-0.476190
 20
-0.243386
 30
0.0
  0
SPLINE
  5
192
100
AcDbEntity
  8
Layer_1
 62
7
100
AcDbSpline
 70
8
 71
3
 72
8
 73
4
 74
0
 40
0
 40
0
 40
0
 40
0
 40
1
 40
1
 40
1
 40
1
 10
-0.476190
 20
-0.243386
 30
0.0
 10
-0.480652
 20
-0.242829
 30
0.0
 10
-0.484983
 20
-0.241480
 30
0.0
 10
-0.489418
 20
-0.240741
 30
0.0
  0
SPLINE
  5
193
100
AcDbEntity
  8
Layer_1
 62
7
100
AcDbSpline
 70
8
 71
3
 72
8
 73
4
 74
0
 40
0
 40
0
 40
0
 40
0
 40
1
 40
1
 40
1
 40
1
 10
-0.489418
 20
-0.240741
 30
0.0
 10
-0.495569
 20
-0.239716
 30
0.0
 10
-0.501774
 20
-0.239043
 30
0.0
 10
-0.507937
 20
-0.238095
 30
0.0
  0
SPLINE
  5
194
100
AcDbEntity
  8
Layer_1
 62
7
100
AcDbSpline
 70
8
 71
3
 72
8
 73
4
 74
0
 40
0
 40
0
 40
0
 40
0
 40
1
 40
1
 40
1
 40
1
 10
-0.507937
 20
-0.238095
 30
0.0
 10
-0.513238
 20
-0.237280
 30
0.0
 10
-0.518464
 20
-0.235895
 30
0.0
 10
-0.523810
 20
-0.235450
 30
0.0
  0
SPLINE
  5
195
100
AcDbEntity
  8
Layer_1
 62
7
100
AcDbSpline
 70
8
 71
3
 72
8
 73
4
 74
0
 40
0
 40
0
 40
0
 40
0
 40
1
 40
1
 40
1
 40
1
 10
-0.523810
 20
-0.235450
 30
0.0
 10
-0.529082
 20
-0.235010
 30
0.0
 10
-0.534392
 20
-0.235450
 30
0.0
 10
-0.539683
 20
-0.235450
 30
0.0
  0
SPLINE
  5
196
100
AcDbEntity
  8
Layer_1
 62
7
100
AcDbSpline
 70
8
 71
3
 72
8
 73
4
 74
0
 40
0
 40
0
 40
0
 40
0
 40
1
 40
1
 40
1
 40
1
 10
-0.539683
 20
-0.235450
 30
0.0
 10
-0.545855
 20
-0.235450
 30
0.0
 10
-0.552028
 20
-0.235450
 30
0.0
 10
-0.558201
 20
-0.235450
 30
0.0
  0
SPLINE
  5
197
100
AcDbEntity
  8
Layer_1
 62
7
100
AcDbSpline
 70
8
 71
3
 72
8
 73
4
 74
0
 40
0
 40
0
 40
0
 40
0
 40
1
 40
1
 40
1
 40
1
 10
-0.558201
 20
-0.235450
 30
0.0
 10
-0.560416
 20
-0.235450
 30
0.0
 10
-0.569417
 20
-0.235953
 30
0.0
 10
-0.571429
 20
-0.235450
 30
0.0
  0
SPLINE
  5
198
100
AcDbEntity
  8
Layer_1
 62
7
100
AcDbSpline
 70
8
 71
3
 72
8
 73
4
 74
0
 40
0
 40
0
 40
0
 40
0
 40
1
 40
1
 40
1
 40
1
 10
-0.571429
 20
-0.235450
 30
0.0
 10
-0.573342
 20
-0.234971
 30
0.0
 10
-0.574786
 20
-0.233191
 30
0.0
 10
-0.576720
 20
-0.232804
 30
0.0
  0
SPLINE
  5
199
100
AcDbEntity
  8
Layer_1
 62
7
100
AcDbSpline
 70
8
 71
3
 72
8
 73
4
 74
0
 40
0
 40
0
 40
0
 40
0
 40
1
 40
1
 40
1
 40
1
 10
-0.576720
 20
-0.232804
 30
0.0
 10
-0.579314
 20
-0.232285
 30
0.0
 10
-0.582037
 20
-0.233178
 30
0.0
 10
-0.584656
 20
-0.232804
 30
0.0
  0
SPLINE
  5
19a
100
AcDbEntity
  8
Layer_1
 62
7
100
AcDbSpline
 70
8
 71
3
 72
8
 73
4
 74
0
 40
0
 40
0
 40
0
 40
0
 40
1
 40
1
 40
1
 40
1
 10
-0.584656
 20
-0.232804
 30
0.0
 10
-0.588255
 20
-0.232290
 30
0.0
 10
-0.591711
 20
-0.231041
 30
0.0
 10
-0.595238
 20
-0.230159
 30
0.0
  0
SPLINE
  5
19b
100
AcDbEntity
  8
Layer_1
 62
7
100
AcDbSpline
 70
8
 71
3
 72
8
 73
4
 74
0
 40
0
 40
0
 40
0
 40
0
 40
1
 40
1
 40
1
 40
1
 10
-0.595238
 20
-0.230159
 30
0.0
 10
-0.601411
 20
-0.229277
 30
0.0
 10
-0.607569
 20
-0.228287
 30
0.0
 10
-0.613757
 20
-0.227513
 30
0.0
  0
SPLINE
  5
19c
100
AcDbEntity
  8
Layer_1
 62
7
100
AcDbSpline
 70
8
 71
3
 72
8
 73
4
 74
0
 40
0
 40
0
 40
0
 40
0
 40
1
 40
1
 40
1
 40
1
 10
-0.613757
 20
-0.227513
 30
0.0
 10
-0.696189
 20
-0.217209
 30
0.0
 10
-0.604772
 20
-0.230109
 30
0.0
 10
-0.648148
 20
-0.222222
 30
0.0
  0
SPLINE
  5
19d
100
AcDbEntity
  8
Layer_1
 62
7
100
AcDbSpline
 70
8
 71
3
 72
8
 73
4
 74
0
 40
0
 40
0
 40
0
 40
0
 40
1
 40
1
 40
1
 40
1
 10
-0.648148
 20
-0.222222
 30
0.0
 10
-0.654283
 20
-0.221107
 30
0.0
 10
-0.660591
 20
-0.220979
 30
0.0
 10
-0.666667
 20
-0.219577
 30
0.0
  0
SPLINE
  5
19e
100
AcDbEntity
  8
Layer_1
 62
7
100
AcDbSpline
 70
8
 71
3
 72
8
 73
4
 74
0
 40
0
 40
0
 40
0
 40
0
 40
1
 40
1
 40
1
 40
1
 10
-0.666667
 20
-0.219577
 30
0.0
 10
-0.672101
 20
-0.218323
 30
0.0
 10
-0.677159
 20
-0.215753
 30
0.0
 10
-0.682540
 20
-0.214286
 30
0.0
  0
SPLINE
  5
19f
100
AcDbEntity
  8
Layer_1
 62
7
100
AcDbSpline
 70
8
 71
3
 72
8
 73
4
 74
0
 40
0
 40
0
 40
0
 40
0
 40
1
 40
1
 40
1
 40
1
 10
-0.682540
 20
-0.214286
 30
0.0
 10
-0.686878
 20
-0.213103
 30
0.0
 10
-0.691444
 20
-0.212875
 30
0.0
 10
-0.695767
 20
-0.211640
 30
0.0
  0
SPLINE
  5
1a0
100
AcDbEntity
  8
Layer_1
 62
7
100
AcDbSpline
 70
8
 71
3
 72
8
 73
4
 74
0
 40
0
 40
0
 40
0
 40
0
 40
1
 40
1
 40
1
 40
1
 10
-0.695767
 20
-0.211640
 30
0.0
 10
-0.697663
 20
-0.211099
 30
0.0
 10
-0.699162
 20
-0.209536
 30
0.0
 10
-0.701058
 20
-0.208995
 30
0.0
  0
SPLINE
  5
1a1
100
AcDbEntity
  8
Layer_1
 62
7
100
AcDbSpline
 70
8
 71
3
 72
8
 73
4
 74
0
 40
0
 40
0
 40
0
 40
0
 40
1
 40
1
 40
1
 40
1
 10
-0.701058
 20
-0.208995
 30
0.0
 10
-0.705382
 20
-0.207759
 30
0.0
 10
-0.709923
 20
-0.207440
 30
0.0
 10
-0.714286
 20
-0.206349
 30
0.0
  0
SPLINE
  5
1a2
100
AcDbEntity
  8
Layer_1
 62
7
100
AcDbSpline
 70
8
 71
3
 72
8
 73
4
 74
0
 40
0
 40
0
 40
0
 40
0
 40
1
 40
1
 40
1
 40
1
 10
-0.714286
 20
-0.206349
 30
0.0
 10
-0.716991
 20
-0.205673
 30
0.0
 10
-0.719500
 20
-0.204309
 30
0.0
 10
-0.722222
 20
-0.203704
 30
0.0
  0
SPLINE
  5
1a3
100
AcDbEntity
  8
Layer_1
 62
7
100
AcDbSpline
 70
8
 71
3
 72
8
 73
4
 74
0
 40
0
 40
0
 40
0
 40
0
 40
1
 40
1
 40
1
 40
1
 10
-0.722222
 20
-0.203704
 30
0.0
 10
-0.727458
 20
-0.202540
 30
0.0
 10
-0.732869
 20
-0.202264
 30
0.0
 10
-0.738095
 20
-0.201058
 30
0.0
  0
SPLINE
  5
1a4
100
AcDbEntity
  8
Layer_1
 62
7
100
AcDbSpline
 70
8
 71
3
 72
8
 73
4
 74
0
 40
0
 40
0
 40
0
 40
0
 40
1
 40
1
 40
1
 40
1
 10
-0.738095
 20
-0.201058
 30
0.0
 10
-0.744351
 20
-0.199615
 30
0.0
 10
-0.750358
 20
-0.197211
 30
0.0
 10
-0.756614
 20
-0.195767
 30
0.0
  0
SPLINE
  5
1a5
100
AcDbEntity
  8
Layer_1
 62
7
100
AcDbSpline
 70
8
 71
3
 72
8
 73
4
 74
0
 40
0
 40
0
 40
0
 40
0
 40
1
 40
1
 40
1
 40
1
 10
-0.756614
 20
-0.195767
 30
0.0
 10
-0.769962
 20
-0.192687
 30
0.0
 10
-0.769655
 20
-0.193122
 30
0.0
 10
-0.780423
 20
-0.193122
 30
0.0
  0
SPLINE
  5
1a6
100
AcDbEntity
  8
Layer_1
 62
7
100
AcDbSpline
 70
8
 71
3
 72
8
 73
4
 74
0
 40
0
 40
0
 40
0
 40
0
 40
1
 40
1
 40
1
 40
1
 10
-0.780423
 20
-0.193122
 30
0.0
 10
-0.783165
 20
-0.193122
 30
0.0
 10
-0.795078
 20
-0.193731
 30
0.0
 10
-0.796296
 20
-0.193122
 30
0.0
  0
SPLINE
  5
1a7
100
AcDbEntity
  8
Layer_1
 62
7
100
AcDbSpline
 70
8
 71
3
 72
8
 73
4
 74
0
 40
0
 40
0
 40
0
 40
0
 40
1
 40
1
 40
1
 40
1
 10
-0.796296
 20
-0.193122
 30
0.0
 10
-0.797412
 20
-0.192564
 30
0.0
 10
-0.797826
 20
-0.191034
 30
0.0
 10
-0.798942
 20
-0.190476
 30
0.0
  0
SPLINE
  5
1a8
100
AcDbEntity
  8
Layer_1
 62
7
100
AcDbSpline
 70
8
 71
3
 72
8
 73
4
 74
0
 40
0
 40
0
 40
0
 40
0
 40
1
 40
1
 40
1
 40
1
 10
-0.798942
 20
-0.190476
 30
0.0
 10
-0.799731
 20
-0.190082
 30
0.0
 10
-0.800799
 20
-0.190871
 30
0.0
 10
-0.801587
 20
-0.190476
 30
0.0
  0
SPLINE
  5
1a9
100
AcDbEntity
  8
Layer_1
 62
7
100
AcDbSpline
 70
8
 71
3
 72
8
 73
4
 74
0
 40
0
 40
0
 40
0
 40
0
 40
1
 40
1
 40
1
 40
1
 10
-0.801587
 20
-0.190476
 30
0.0
 10
-0.802703
 20
-0.189919
 30
0.0
 10
-0.803117
 20
-0.188388
 30
0.0
 10
-0.804233
 20
-0.187831
 30
0.0
  0
SPLINE
  5
1aa
100
AcDbEntity
  8
Layer_1
 62
7
100
AcDbSpline
 70
8
 71
3
 72
8
 73
4
 74
0
 40
0
 40
0
 40
0
 40
0
 40
1
 40
1
 40
1
 40
1
 10
-0.804233
 20
-0.187831
 30
0.0
 10
-0.805037
 20
-0.187429
 30
0.0
 10
-0.812988
 20
-0.187831
 30
0.0
 10
-0.814815
 20
-0.187831
 30
0.0
  0
SPLINE
  5
1ab
100
AcDbEntity
  8
Layer_1
 62
7
100
AcDbSpline
 70
8
 71
3
 72
8
 73
4
 74
0
 40
0
 40
0
 40
0
 40
0
 40
1
 40
1
 40
1
 40
1
 10
-0.814815
 20
-0.187831
 30
0.0
 10
-0.824515
 20
-0.187831
 30
0.0
 10
-0.834215
 20
-0.187831
 30
0.0
 10
-0.843915
 20
-0.187831
 30
0.0
  0
SPLINE
  5
1ac
100
AcDbEntity
  8
Layer_1
 62
7
100
AcDbSpline
 70
8
 71
3
 72
8
 73
4
 74
0
 40
0
 40
0
 40
0
 40
0
 40
1
 40
1
 40
1
 40
1
 10
-0.843915
 20
-0.187831
 30
0.0
 10
-0.848325
 20
-0.187831
 30
0.0
 10
-0.852734
 20
-0.187831
 30
0.0
 10
-0.857143
 20
-0.187831
 30
0.0
  0
SPLINE
  5
1ad
100
AcDbEntity
  8
Layer_1
 62
7
100
AcDbSpline
 70
8
 71
3
 72
8
 73
4
 74
0
 40
0
 40
0
 40
0
 40
0
 40
1
 40
1
 40
1
 40
1
 10
-0.857143
 20
-0.187831
 30
0.0
 10
-0.858025
 20
-0.187831
 30
0.0
 10
-0.858907
 20
-0.187831
 30
0.0
 10
-0.859788
 20
-0.187831
 30
0.0
  0
SPLINE
  5
1ae
100
AcDbEntity
  8
Layer_1
 62
7
100
AcDbSpline
 70
8
 71
3
 72
8
 73
4
 74
0
 40
0
 40
0
 40
0
 40
0
 40
1
 40
1
 40
1
 40
1
 10
-0.859788
 20
-0.187831
 30
0.0
 10
-0.860670
 20
-0.187831
 30
0.0
 10
-0.861645
 20
-0.187436
 30
0.0
 10
-0.862434
 20
-0.187831
 30
0.0
  0
SPLINE
  5
1af
100
AcDbEntity
  8
Layer_1
 62
7
100
AcDbSpline
 70
8
 71
3
 72
8
 73
4
 74
0
 40
0
 40
0
 40
0
 40
0
 40
1
 40
1
 40
1
 40
1
 10
-0.862434
 20
-0.187831
 30
0.0
 10
-0.863549
 20
-0.188388
 30
0.0
 10
-0.863964
 20
-0.189919
 30
0.0
 10
-0.865079
 20
-0.190476
 30
0.0
  0
SPLINE
  5
1b0
100
AcDbEntity
  8
Layer_1
 62
7
100
AcDbSpline
 70
8
 71
3
 72
8
 73
4
 74
0
 40
0
 40
0
 40
0
 40
0
 40
1
 40
1
 40
1
 40
1
 10
-0.865079
 20
-0.190476
 30
0.0
 10
-0.866128
 20
-0.191001
 30
0.0
 10
-0.872475
 20
-0.189935
 30
0.0
 10
-0.873016
 20
-0.190476
 30
0.0
  0
SPLINE
  5
1b1
100
AcDbEntity
  8
Layer_1
 62
7
100
AcDbSpline
 70
8
 71
3
 72
8
 73
4
 74
0
 40
0
 40
0
 40
0
 40
0
 40
1
 40
1
 40
1
 40
1
 10
-0.873016
 20
-0.190476
 30
0.0
 10
-0.873639
 20
-0.191100
 30
0.0
 10
-0.872392
 20
-0.192498
 30
0.0
 10
-0.873016
 20
-0.193122
 30
0.0
  0
SPLINE
  5
1b2
100
AcDbEntity
  8
Layer_1
 62
7
100
AcDbSpline
 70
8
 71
3
 72
8
 73
4
 74
0
 40
0
 40
0
 40
0
 40
0
 40
1
 40
1
 40
1
 40
1
 10
-0.873016
 20
-0.193122
 30
0.0
 10
-0.873639
 20
-0.193745
 30
0.0
 10
-0.874825
 20
-0.192843
 30
0.0
 10
-0.875661
 20
-0.193122
 30
0.0
  0
SPLINE
  5
1b3
100
AcDbEntity
  8
Layer_1
 62
7
100
AcDbSpline
 70
8
 71
3
 72
8
 73
4
 74
0
 40
0
 40
0
 40
0
 40
0
 40
1
 40
1
 40
1
 40
1
 10
-0.875661
 20
-0.193122
 30
0.0
 10
-0.877532
 20
-0.193745
 30
0.0
 10
-0.879558
 20
-0.194373
 30
0.0
 10
-0.880952
 20
-0.195767
 30
0.0
  0
SPLINE
  5
1b4
100
AcDbEntity
  8
Layer_1
 62
7
100
AcDbSpline
 70
8
 71
3
 72
8
 73
4
 74
0
 40
0
 40
0
 40
0
 40
0
 40
1
 40
1
 40
1
 40
1
 10
-0.880952
 20
-0.195767
 30
0.0
 10
-0.886426
 20
-0.201241
 30
0.0
 10
-0.872588
 20
-0.195553
 30
0.0
 10
-0.883598
 20
-0.201058
 30
0.0
  0
SPLINE
  5
1b5
100
AcDbEntity
  8
Layer_1
 62
7
100
AcDbSpline
 70
8
 71
3
 72
8
 73
4
 74
0
 40
0
 40
0
 40
0
 40
0
 40
1
 40
1
 40
1
 40
1
 10
-0.883598
 20
-0.201058
 30
0.0
 10
-0.884387
 20
-0.201453
 30
0.0
 10
-0.886243
 20
-0.201940
 30
0.0
 10
-0.886243
 20
-0.201058
 30
0.0
  0
SPLINE
  5
1b6
100
AcDbEntity
  8
Layer_1
 62
7
100
AcDbSpline
 70
8
 71
3
 72
8
 73
4
 74
0
 40
0
 40
0
 40
0
 40
0
 40
1
 40
1
 40
1
 40
1
 10
-0.886243
 20
-0.201058
 30
0.0
 10
-0.886243
 20
-0.200176
 30
0.0
 10
-0.882716
 20
-0.201058
 30
0.0
 10
-0.883598
 20
-0.201058
 30
0.0
  0
SPLINE
  5
1b7
100
AcDbEntity
  8
Layer_1
 62
7
100
AcDbSpline
 70
8
 71
3
 72
8
 73
4
 74
0
 40
0
 40
0
 40
0
 40
0
 40
1
 40
1
 40
1
 40
1
 10
-0.883598
 20
-0.201058
 30
0.0
 10
-0.887125
 20
-0.201058
 30
0.0
 10
-0.890653
 20
-0.201058
 30
0.0
 10
-0.894180
 20
-0.201058
 30
0.0
  0
SPLINE
  5
1b8
100
AcDbEntity
  8
Layer_1
 62
7
100
AcDbSpline
 70
8
 71
3
 72
8
 73
4
 74
0
 40
0
 40
0
 40
0
 40
0
 40
1
 40
1
 40
1
 40
1
 10
-0.894180
 20
-0.201058
 30
0.0
 10
-0.895944
 20
-0.201058
 30
0.0
 10
-0.897741
 20
-0.200712
 30
0.0
 10
-0.899471
 20
-0.201058
 30
0.0
  0
SPLINE
  5
1b9
100
AcDbEntity
  8
Layer_1
 62
7
100
AcDbSpline
 70
8
 71
3
 72
8
 73
4
 74
0
 40
0
 40
0
 40
0
 40
0
 40
1
 40
1
 40
1
 40
1
 10
-0.899471
 20
-0.201058
 30
0.0
 10
-0.903036
 20
-0.201771
 30
0.0
 10
-0.906526
 20
-0.202822
 30
0.0
 10
-0.910053
 20
-0.203704
 30
0.0
  0
LWPOLYLINE
  5
1ba
100
AcDbEntity
  8
Layer_1
 62
7
100
AcDbPolyline
 90
11
 70
1
 10
-0.246032
 20
-0.417989
 30
0.0
 10
-0.829540
 20
-0.370964
 30
0.0
 10
-1.199079
 20
-0.824984
 30
0.0
 10
-1.334669
 20
-0.255503
 30
0.0
 10
-1.880662
 20
-0.044351
 30
0.0
 10
-1.380952
 20
0.260582
 30
0.0
 10
-1.348856
 20
0.845102
 30
0.0
 10
-0.904429
 20
0.464080
 30
0.0
 10
-0.338599
 20
0.614181
 30
0.0
 10
-0.563637
 20
0.073763
 30
0.0
 10
-0.246032
 20
-0.417989
 30
0.0
  0
LWPOLYLINE
  5
1bb
100
AcDbEntity
  8
Layer_1
 62
7
100
AcDbPolyline
 90
2
 70
1
 10
-0.910053
 20
-0.203704
 30
0.0
 10
-0.910053
 20
-0.203704
 30
0.0
  0
SPLINE
  5
1bc
100
AcDbEntity
  8
Layer_1
 62
7
100
AcDbSpline
 70
8
 71
3
 72
8
 73
4
 74
0
 40
0
 40
0
 40
0
 40
0
 40
1
 40
1
 40
1
 40
1
 10
-1.494709
 20
-1.730159
 30
0.0
 10
-1.542328
 20
-1.296296
 30
0.0
 10
-1.534392
 20
-0.992064
 30
0.0
 10
-1.246032
 20
-1.124339
 30
0.0
  0
SPLINE
  5
1bd
100
AcDbEntity
  8
Layer_1
 62
7
100
AcDbSpline
 70
8
 71
3
 72
8
 73
4
 74
0
 40
0
 40
0
 40
0
 40
0
 40
1
 40
1
 40
1
 40
1
 10
-1.246032
 20
-1.124339
 30
0.0
 10
-0.957672
 20
-1.256614
 30
0.0
 10
-0.555556
 20
-1.412698
 30
0.0
 10
-0.309524
 20
-1.253968
 30
0.0
  0
SPLINE
  5
1be
100
AcDbEntity
  8
Layer_1
 62
7
100
AcDbSpline
 70
8
 71
3
 72
8
 73
4
 74
0
 40
0
 40
0
 40
0
 40
0
 40
1
 40
1
 40
1
 40
1
 10
-0.309524
 20
-1.253968
 30
0.0
 10
-0.063492
 20
-1.095238
 30
0.0
 10
0.134921
 20
-1.179894
 30
0.0
 10
0.076720
 20
-1.425926
 30
0.0
  0
SPLINE
  5
1bf
100
AcDbEntity
  8
Layer_1
 62
7
100
AcDbSpline
 70
8
 71
3
 72
8
 73
4
 74
0
 40
0
 40
0
 40
0
 40
0
 40
1
 40
1
 40
1
 40
1
 10
0.076720
 20
-1.425926
 30
0.0
 10
0.018519
 20
-1.671958
 30
0.0
 10
-0.042328
 20
-2.029101
 30
0.0
 10
-0.595238
 20
-2.018519
 30
0.0
  0
SPLINE
  5
1c0
100
AcDbEntity
  8
Layer_1
 62
7
100
AcDbSpline
 70
8
 71
3
 72
8
 73
4
 74
0
 40
0
 40
0
 40
0
 40
0
 40
1
 40
1
 40
1
 40
1
 10
-0.595238
 20
-2.018519
 30
0.0
 10
-1.148148
 20
-2.007936
 30
0.0
 10
-1.433862
 20
-2.015873
 30
0.0
 10
-1.494709
 20
-1.730159
 30
0.0
  0
LWPOLYLINE
  5
1c1
100
AcDbEntity
  8
Layer_1
 62
7
100
AcDbPolyline
 90
7
 70
1
 10
0.097884
 20
-0.550265
 30
0.0
 10
0.515873
 20
-0.193122
 30
0.0
 10
1.142857
 20
-0.219577
 30
0.0
 10
1.285714
 20
-0.640212
 30
0.0
 10
0.857143
 20
-1.050265
 30
0.0
 10
0.238095
 20
-0.888889
 30
0.0
 10
0.097884
 20
-0.550265
 30
0.0
  0
LWPOLYLINE
  5
1c2
100
AcDbEntity
  8
Layer_1
 62
7
100
AcDbPolyline
 90
2
 70
1
 10
-1.494709
 20
-1.730159
 30
0.0
 10
-1.494709
 20
-1.730159
 30
0.0
  0
ENDSEC
  0
SECTION
  2
OBJECTS
  0
DICTIONARY
  5
C
330
0
100
AcDbDictionary
  3
ACAD_GROUP
350
D
  3
ACAD_MLINESTYLE
350
17
  0
DICTIONARY
  5
D
330
C
100
AcDbDictionary
  0
DICTIONARY
  5
1A
330
C
100
AcDbDictionary
  0
DICTIONARY
  5
17
330
C
100
AcDbDictionary
  3
STANDARD
350
18
  0
DICTIONARY
  5
19
330
C
100
AcDbDictionary
  0
ENDSEC
  0
EOF
